<?xml version="1.0" encoding="UTF-8"?>
<svg xmlns="http://www.w3.org/2000/svg" viewBox="0 0 2652 1235" width="100%" height="100%">
  <defs>
    <linearGradient id="canvas-bg" x1="0%" y1="0%" x2="100%" y2="100%">
      <stop offset="0%" stop-color="#04060d"/>
      <stop offset="50%" stop-color="#080c1d"/>
      <stop offset="100%" stop-color="#020306"/>
    </linearGradient>
    <linearGradient id="brand-grad" x1="0%" y1="0%" x2="100%" y2="0%">
      <stop offset="0%" stop-color="#ff0055"/>
      <stop offset="50%" stop-color="#7928ca"/>
      <stop offset="100%" stop-color="#00f0ff"/>
    </linearGradient>
    <style>
      @import url('https://fonts.googleapis.com/css2?family=Fira+Code:wght@400;500;600;700&amp;family=Inter:wght@400;600;700;800&amp;display=swap');
      text { font-family: 'Inter', -apple-system, sans-serif; }
      .code-font { font-family: 'Fira Code', monospace; }
    </style>
  </defs>
  <rect width="2652" height="1235" fill="url(#canvas-bg)"/>
  <g opacity="0.03" stroke="#ffffff" stroke-width="1">
    <pattern id="grid" width="40" height="40" patternUnits="userSpaceOnUse">
      <path d="M 40 0 L 0 0 0 40" fill="none"/>
    </pattern>
    <rect width="2652" height="1235" fill="url(#grid)"/>
  </g>
  <g transform="rotate(-25 1326.0 617.5)" opacity="0.035" pointer-events="none">
    <text x="1326.0" y="308.75" text-anchor="middle" font-family="monospace" font-weight="900" font-size="110" fill="#ffffff" letter-spacing="16px">REDTEAMAPT.IR</text>
    <text x="1326.0" y="617.5" text-anchor="middle" font-family="monospace" font-weight="900" font-size="110" fill="#ffffff" letter-spacing="16px">REDTEAMAPT.IR</text>
    <text x="1326.0" y="926.25" text-anchor="middle" font-family="monospace" font-weight="900" font-size="110" fill="#ffffff" letter-spacing="16px">REDTEAMAPT.IR</text>
  </g>

  <g transform="translate(1326.0, 75)">
    <rect x="-400.0" y="-46.0" width="800" height="92" rx="18" fill="#0c1224" stroke="url(#brand-grad)" stroke-width="2.5"/>
    <text x="0" y="2" text-anchor="middle" font-family="'Fira Code', monospace" font-size="30" font-weight="800" fill="#ffffff">
      <tspan fill="#ff0055">RED</tspan><tspan fill="#ffffff">TEAM</tspan><tspan fill="#00f0ff">APT</tspan>
      <tspan fill="#94a3b8" font-size="22"> | </tspan>
      <tspan fill="#38bdf8">ENUMERATION</tspan>
    </text>
    <text x="0" y="26" text-anchor="middle" font-family="'Inter', sans-serif" font-size="12" font-weight="600" fill="#94a3b8" letter-spacing="3px">ADVANCED OFFENSIVE CYBERSECURITY &amp; RED TEAM ROADMAP</text>
  </g>

  <g transform="translate(90, 170)">
    <g transform="translate(0, 0)">
    <g class="cat-card">
      <rect x="0" y="0" width="480" height="305" rx="10"
            fill="none" stroke="#00f0ff" stroke-width="1.6" stroke-dasharray="4,3"/>
      <rect x="14" y="-16" width="393.0" height="32" rx="7" fill="#00f0ff"/>
      <text x="210.5" y="5" text-anchor="middle"
            font-family="'Fira Code', monospace" font-size="12.5" font-weight="800" fill="#04060d">auxiliary/scanner/smb/smb_enumusers_domain</text>
      <circle cx="21" cy="52" r="2.6" fill="#00f0ff"/><text x="34" y="56" font-family="sans-serif" font-size="12.5" font-weight="500" fill="#cbd5e1">polenum</text><circle cx="21" cy="73" r="2.6" fill="#00f0ff"/><text x="34" y="77" font-family="sans-serif" font-size="12.5" font-weight="500" fill="#cbd5e1">auxiliary/scanner/smb/smb_enum_gpp</text><circle cx="21" cy="94" r="2.6" fill="#00f0ff"/><text x="34" y="98" font-family="sans-serif" font-size="12.5" font-weight="500" fill="#cbd5e1">smb-enum null sessions</text><circle cx="21" cy="115" r="2.6" fill="#00f0ff"/><text x="34" y="119" font-family="sans-serif" font-size="12.5" font-weight="500" fill="#cbd5e1">auxiliary/scanner/smb/smb_enumshares</text><circle cx="21" cy="136" r="2.6" fill="#00f0ff"/><text x="34" y="140" font-family="sans-serif" font-size="12.5" font-weight="500" fill="#cbd5e1">Metasploit</text><circle cx="21" cy="157" r="2.6" fill="#00f0ff"/><text x="34" y="161" font-family="sans-serif" font-size="12.5" font-weight="500" fill="#cbd5e1">smb-enum sessions</text><circle cx="21" cy="178" r="2.6" fill="#00f0ff"/><text x="34" y="182" font-family="sans-serif" font-size="12.5" font-weight="500" fill="#cbd5e1">auxiliary/scanner/smb/smb_enumusers</text><circle cx="21" cy="199" r="2.6" fill="#00f0ff"/><text x="34" y="203" font-family="sans-serif" font-size="12.5" font-weight="500" fill="#cbd5e1">smb-enum groups</text><circle cx="21" cy="220" r="2.6" fill="#00f0ff"/><text x="34" y="224" font-family="sans-serif" font-size="12.5" font-weight="500" fill="#cbd5e1">auxiliary/scanner/smb/smb_lookupsid</text><circle cx="21" cy="241" r="2.6" fill="#00f0ff"/><text x="34" y="245" font-family="sans-serif" font-size="12.5" font-weight="500" fill="#cbd5e1">Nmap</text><circle cx="21" cy="262" r="2.6" fill="#00f0ff"/><text x="34" y="266" font-family="sans-serif" font-size="12.5" font-weight="500" fill="#cbd5e1">smb-enum-users</text>
    </g>
    </g><g transform="translate(498, 0)">
    <g class="cat-card">
      <rect x="0" y="0" width="480" height="347" rx="10"
            fill="none" stroke="#f59e0b" stroke-width="1.6" stroke-dasharray="4,3"/>
      <rect x="14" y="-16" width="274.0" height="32" rx="7" fill="#f59e0b"/>
      <text x="151.0" y="5" text-anchor="middle"
            font-family="'Fira Code', monospace" font-size="12.5" font-weight="800" fill="#04060d">NetBIOS &amp; SMB (Port 139/445)</text>
      <circle cx="21" cy="52" r="2.6" fill="#f59e0b"/><text x="34" y="56" font-family="sans-serif" font-size="12.5" font-weight="500" fill="#cbd5e1">nmblookup</text><circle cx="21" cy="73" r="2.6" fill="#f59e0b"/><text x="34" y="77" font-family="sans-serif" font-size="12.5" font-weight="500" fill="#cbd5e1">smb-enum admins</text><circle cx="21" cy="94" r="2.6" fill="#f59e0b"/><text x="34" y="98" font-family="sans-serif" font-size="12.5" font-weight="500" fill="#cbd5e1">SMBMap</text><circle cx="21" cy="115" r="2.6" fill="#f59e0b"/><text x="34" y="119" font-family="sans-serif" font-size="12.5" font-weight="500" fill="#cbd5e1">smb-enum shares</text><circle cx="21" cy="136" r="2.6" fill="#f59e0b"/><text x="34" y="140" font-family="sans-serif" font-size="12.5" font-weight="500" fill="#cbd5e1">smbclient</text><circle cx="21" cy="157" r="2.6" fill="#f59e0b"/><text x="34" y="161" font-family="sans-serif" font-size="12.5" font-weight="500" fill="#cbd5e1">smb-enum policies</text><circle cx="21" cy="178" r="2.6" fill="#f59e0b"/><text x="34" y="182" font-family="sans-serif" font-size="12.5" font-weight="500" fill="#cbd5e1">crackmapexec</text><circle cx="21" cy="199" r="2.6" fill="#f59e0b"/><text x="34" y="203" font-family="sans-serif" font-size="12.5" font-weight="500" fill="#cbd5e1">Samrdump</text><circle cx="21" cy="220" r="2.6" fill="#f59e0b"/><text x="34" y="224" font-family="sans-serif" font-size="12.5" font-weight="500" fill="#cbd5e1">nbtscan</text><circle cx="21" cy="241" r="2.6" fill="#f59e0b"/><text x="34" y="245" font-family="sans-serif" font-size="12.5" font-weight="500" fill="#cbd5e1">enum4linux</text><circle cx="21" cy="262" r="2.6" fill="#f59e0b"/><text x="34" y="266" font-family="sans-serif" font-size="12.5" font-weight="500" fill="#cbd5e1">jxplorer</text><circle cx="21" cy="283" r="2.6" fill="#f59e0b"/><text x="34" y="287" font-family="sans-serif" font-size="12.5" font-weight="500" fill="#cbd5e1">ldap-brute</text><circle cx="21" cy="304" r="2.6" fill="#f59e0b"/><text x="34" y="308" font-family="sans-serif" font-size="12.5" font-weight="500" fill="#cbd5e1">ldapsearch</text>
    </g>
    </g><g transform="translate(996, 0)">
    <g class="cat-card">
      <rect x="0" y="0" width="480" height="200" rx="10"
            fill="none" stroke="#10b981" stroke-width="1.6" stroke-dasharray="4,3"/>
      <rect x="14" y="-16" width="197.5" height="32" rx="7" fill="#10b981"/>
      <text x="112.75" y="5" text-anchor="middle"
            font-family="'Fira Code', monospace" font-size="12.5" font-weight="800" fill="#04060d">LDAP (Port 389/636)</text>
      <circle cx="21" cy="52" r="2.6" fill="#10b981"/><text x="34" y="56" font-family="sans-serif" font-size="12.5" font-weight="500" fill="#cbd5e1">ldap-rootdse</text><circle cx="21" cy="73" r="2.6" fill="#10b981"/><text x="34" y="77" font-family="sans-serif" font-size="12.5" font-weight="500" fill="#cbd5e1">Nmap</text><circle cx="21" cy="94" r="2.6" fill="#10b981"/><text x="34" y="98" font-family="sans-serif" font-size="12.5" font-weight="500" fill="#cbd5e1">LDAPDomainDump</text><circle cx="21" cy="115" r="2.6" fill="#10b981"/><text x="34" y="119" font-family="sans-serif" font-size="12.5" font-weight="500" fill="#cbd5e1">ldap-search</text><circle cx="21" cy="136" r="2.6" fill="#10b981"/><text x="34" y="140" font-family="sans-serif" font-size="12.5" font-weight="500" fill="#cbd5e1">windapsearch</text><circle cx="21" cy="157" r="2.6" fill="#10b981"/><text x="34" y="161" font-family="sans-serif" font-size="12.5" font-weight="500" fill="#cbd5e1">Softerra LDAP Administrator</text>
    </g>
    </g><g transform="translate(1494, 0)">
    <g class="cat-card">
      <rect x="0" y="0" width="480" height="137" rx="10"
            fill="none" stroke="#ef4444" stroke-width="1.6" stroke-dasharray="4,3"/>
      <rect x="14" y="-16" width="155.0" height="32" rx="7" fill="#ef4444"/>
      <text x="91.5" y="5" text-anchor="middle"
            font-family="'Fira Code', monospace" font-size="12.5" font-weight="800" fill="#04060d">RPC (Port 135)</text>
      <circle cx="21" cy="52" r="2.6" fill="#ef4444"/><text x="34" y="56" font-family="sans-serif" font-size="12.5" font-weight="500" fill="#cbd5e1">rpcinfo</text><circle cx="21" cy="73" r="2.6" fill="#ef4444"/><text x="34" y="77" font-family="sans-serif" font-size="12.5" font-weight="500" fill="#cbd5e1">Metasploit: auxiliary/scanner/smtp/smtp_enum</text><circle cx="21" cy="94" r="2.6" fill="#ef4444"/><text x="34" y="98" font-family="sans-serif" font-size="12.5" font-weight="500" fill="#cbd5e1">smtp-enum-vrfy</text>
    </g>
    </g><g transform="translate(1992, 0)">
    <g class="cat-card">
      <rect x="0" y="0" width="480" height="263" rx="10"
            fill="none" stroke="#8b5cf6" stroke-width="1.6" stroke-dasharray="4,3"/>
      <rect x="14" y="-16" width="155.0" height="32" rx="7" fill="#8b5cf6"/>
      <text x="91.5" y="5" text-anchor="middle"
            font-family="'Fira Code', monospace" font-size="12.5" font-weight="800" fill="#04060d">SMTP (Port 25)</text>
      <circle cx="21" cy="52" r="2.6" fill="#8b5cf6"/><text x="34" y="56" font-family="sans-serif" font-size="12.5" font-weight="500" fill="#cbd5e1">Nmap: nmap --script smtp-enum-users</text><circle cx="21" cy="73" r="2.6" fill="#8b5cf6"/><text x="34" y="77" font-family="sans-serif" font-size="12.5" font-weight="500" fill="#cbd5e1">NetScanTools</text><circle cx="21" cy="94" r="2.6" fill="#8b5cf6"/><text x="34" y="98" font-family="sans-serif" font-size="12.5" font-weight="500" fill="#cbd5e1">iSMTP</text><circle cx="21" cy="115" r="2.6" fill="#8b5cf6"/><text x="34" y="119" font-family="sans-serif" font-size="12.5" font-weight="500" fill="#cbd5e1">smtp-enum-rcpt</text><circle cx="21" cy="136" r="2.6" fill="#8b5cf6"/><text x="34" y="140" font-family="sans-serif" font-size="12.5" font-weight="500" fill="#cbd5e1">auxiliary/scanner/snmp/snmp_enum</text><circle cx="21" cy="157" r="2.6" fill="#8b5cf6"/><text x="34" y="161" font-family="sans-serif" font-size="12.5" font-weight="500" fill="#cbd5e1">auxiliary/scanner/snmp/snmp_enumshares</text><circle cx="21" cy="178" r="2.6" fill="#8b5cf6"/><text x="34" y="182" font-family="sans-serif" font-size="12.5" font-weight="500" fill="#cbd5e1">Metasploit</text><circle cx="21" cy="199" r="2.6" fill="#8b5cf6"/><text x="34" y="203" font-family="sans-serif" font-size="12.5" font-weight="500" fill="#cbd5e1">snmp-check</text><circle cx="21" cy="220" r="2.6" fill="#8b5cf6"/><text x="34" y="224" font-family="sans-serif" font-size="12.5" font-weight="500" fill="#cbd5e1">auxiliary/scanner/snmp/snmp_enumusers</text>
    </g>
    </g><g transform="translate(1494, 155)">
    <g class="cat-card">
      <rect x="0" y="0" width="480" height="200" rx="10"
            fill="none" stroke="#ec4899" stroke-width="1.6" stroke-dasharray="4,3"/>
      <rect x="14" y="-16" width="197.5" height="32" rx="7" fill="#ec4899"/>
      <text x="112.75" y="5" text-anchor="middle"
            font-family="'Fira Code', monospace" font-size="12.5" font-weight="800" fill="#04060d">SNMP (Port 161/162)</text>
      <circle cx="21" cy="52" r="2.6" fill="#ec4899"/><text x="34" y="56" font-family="sans-serif" font-size="12.5" font-weight="500" fill="#cbd5e1">snmpbulkwalk</text><circle cx="21" cy="73" r="2.6" fill="#ec4899"/><text x="34" y="77" font-family="sans-serif" font-size="12.5" font-weight="500" fill="#cbd5e1">SNMP Scanner</text><circle cx="21" cy="94" r="2.6" fill="#ec4899"/><text x="34" y="98" font-family="sans-serif" font-size="12.5" font-weight="500" fill="#cbd5e1">snmpwalk</text><circle cx="21" cy="115" r="2.6" fill="#ec4899"/><text x="34" y="119" font-family="sans-serif" font-size="12.5" font-weight="500" fill="#cbd5e1">OpUtils</text><circle cx="21" cy="136" r="2.6" fill="#ec4899"/><text x="34" y="140" font-family="sans-serif" font-size="12.5" font-weight="500" fill="#cbd5e1">rdp-enum-encryption</text><circle cx="21" cy="157" r="2.6" fill="#ec4899"/><text x="34" y="161" font-family="sans-serif" font-size="12.5" font-weight="500" fill="#cbd5e1">ncrack</text>
    </g>
    </g><g transform="translate(996, 218)">
    <g class="cat-card">
      <rect x="0" y="0" width="480" height="200" rx="10"
            fill="none" stroke="#3b82f6" stroke-width="1.6" stroke-dasharray="4,3"/>
      <rect x="14" y="-16" width="163.5" height="32" rx="7" fill="#3b82f6"/>
      <text x="95.75" y="5" text-anchor="middle"
            font-family="'Fira Code', monospace" font-size="12.5" font-weight="800" fill="#04060d">RDP (Port 3389)</text>
      <circle cx="21" cy="52" r="2.6" fill="#3b82f6"/><text x="34" y="56" font-family="sans-serif" font-size="12.5" font-weight="500" fill="#cbd5e1">rdp-ntlm-info</text><circle cx="21" cy="73" r="2.6" fill="#3b82f6"/><text x="34" y="77" font-family="sans-serif" font-size="12.5" font-weight="500" fill="#cbd5e1">Nmap</text><circle cx="21" cy="94" r="2.6" fill="#3b82f6"/><text x="34" y="98" font-family="sans-serif" font-size="12.5" font-weight="500" fill="#cbd5e1">Crowbar</text><circle cx="21" cy="115" r="2.6" fill="#3b82f6"/><text x="34" y="119" font-family="sans-serif" font-size="12.5" font-weight="500" fill="#cbd5e1">rdp-vuln-ms12-020</text><circle cx="21" cy="136" r="2.6" fill="#3b82f6"/><text x="34" y="140" font-family="sans-serif" font-size="12.5" font-weight="500" fill="#cbd5e1">auxiliary/scanner/ftp/anonymous</text><circle cx="21" cy="157" r="2.6" fill="#3b82f6"/><text x="34" y="161" font-family="sans-serif" font-size="12.5" font-weight="500" fill="#cbd5e1">ftp-vulnerability-scan</text>
    </g>
    </g><g transform="translate(1992, 281)">
    <g class="cat-card">
      <rect x="0" y="0" width="480" height="284" rx="10"
            fill="none" stroke="#00f0ff" stroke-width="1.6" stroke-dasharray="4,3"/>
      <rect x="14" y="-16" width="146.5" height="32" rx="7" fill="#00f0ff"/>
      <text x="87.25" y="5" text-anchor="middle"
            font-family="'Fira Code', monospace" font-size="12.5" font-weight="800" fill="#04060d">FTP (Port 21)</text>
      <circle cx="21" cy="52" r="2.6" fill="#00f0ff"/><text x="34" y="56" font-family="sans-serif" font-size="12.5" font-weight="500" fill="#cbd5e1">Metasploit</text><circle cx="21" cy="73" r="2.6" fill="#00f0ff"/><text x="34" y="77" font-family="sans-serif" font-size="12.5" font-weight="500" fill="#cbd5e1">auxiliary/scanner/ftp/ftp_login</text><circle cx="21" cy="94" r="2.6" fill="#00f0ff"/><text x="34" y="98" font-family="sans-serif" font-size="12.5" font-weight="500" fill="#cbd5e1">ftp-default</text><circle cx="21" cy="115" r="2.6" fill="#00f0ff"/><text x="34" y="119" font-family="sans-serif" font-size="12.5" font-weight="500" fill="#cbd5e1">OWASP Zap</text><circle cx="21" cy="136" r="2.6" fill="#00f0ff"/><text x="34" y="140" font-family="sans-serif" font-size="12.5" font-weight="500" fill="#cbd5e1">feroxbuster</text><circle cx="21" cy="157" r="2.6" fill="#00f0ff"/><text x="34" y="161" font-family="sans-serif" font-size="12.5" font-weight="500" fill="#cbd5e1">cewl</text><circle cx="21" cy="178" r="2.6" fill="#00f0ff"/><text x="34" y="182" font-family="sans-serif" font-size="12.5" font-weight="500" fill="#cbd5e1">Burpsuite</text><circle cx="21" cy="199" r="2.6" fill="#00f0ff"/><text x="34" y="203" font-family="sans-serif" font-size="12.5" font-weight="500" fill="#cbd5e1">wafw00f</text><circle cx="21" cy="220" r="2.6" fill="#00f0ff"/><text x="34" y="224" font-family="sans-serif" font-size="12.5" font-weight="500" fill="#cbd5e1">Nmap Scripts</text><circle cx="21" cy="241" r="2.6" fill="#00f0ff"/><text x="34" y="245" font-family="sans-serif" font-size="12.5" font-weight="500" fill="#cbd5e1">katana</text>
    </g>
    </g><g transform="translate(0, 323)">
    <g class="cat-card">
      <rect x="0" y="0" width="480" height="452" rx="10"
            fill="none" stroke="#f59e0b" stroke-width="1.6" stroke-dasharray="4,3"/>
      <rect x="14" y="-16" width="197.5" height="32" rx="7" fill="#f59e0b"/>
      <text x="112.75" y="5" text-anchor="middle"
            font-family="'Fira Code', monospace" font-size="12.5" font-weight="800" fill="#04060d">HTTP/HTTPS (80,443)</text>
      <circle cx="21" cy="52" r="2.6" fill="#f59e0b"/><text x="34" y="56" font-family="sans-serif" font-size="12.5" font-weight="500" fill="#cbd5e1">Nikto</text><circle cx="21" cy="73" r="2.6" fill="#f59e0b"/><text x="34" y="77" font-family="sans-serif" font-size="12.5" font-weight="500" fill="#cbd5e1">curl</text><circle cx="21" cy="94" r="2.6" fill="#f59e0b"/><text x="34" y="98" font-family="sans-serif" font-size="12.5" font-weight="500" fill="#cbd5e1">Whatweb</text><circle cx="21" cy="115" r="2.6" fill="#f59e0b"/><text x="34" y="119" font-family="sans-serif" font-size="12.5" font-weight="500" fill="#cbd5e1">gobuster</text><circle cx="21" cy="136" r="2.6" fill="#f59e0b"/><text x="34" y="140" font-family="sans-serif" font-size="12.5" font-weight="500" fill="#cbd5e1">sslscan</text><circle cx="21" cy="157" r="2.6" fill="#f59e0b"/><text x="34" y="161" font-family="sans-serif" font-size="12.5" font-weight="500" fill="#cbd5e1">ffuf</text><circle cx="21" cy="178" r="2.6" fill="#f59e0b"/><text x="34" y="182" font-family="sans-serif" font-size="12.5" font-weight="500" fill="#cbd5e1">httpx</text><circle cx="21" cy="199" r="2.6" fill="#f59e0b"/><text x="34" y="203" font-family="sans-serif" font-size="12.5" font-weight="500" fill="#cbd5e1">sslyze</text><circle cx="21" cy="220" r="2.6" fill="#f59e0b"/><text x="34" y="224" font-family="sans-serif" font-size="12.5" font-weight="500" fill="#cbd5e1">mysql-audit</text><circle cx="21" cy="241" r="2.6" fill="#f59e0b"/><text x="34" y="245" font-family="sans-serif" font-size="12.5" font-weight="500" fill="#cbd5e1">mysql-brute</text><circle cx="21" cy="262" r="2.6" fill="#f59e0b"/><text x="34" y="266" font-family="sans-serif" font-size="12.5" font-weight="500" fill="#cbd5e1">auxiliary/scanner/mysql/mysql_version</text><circle cx="21" cy="283" r="2.6" fill="#f59e0b"/><text x="34" y="287" font-family="sans-serif" font-size="12.5" font-weight="500" fill="#cbd5e1">mysql-databases</text><circle cx="21" cy="304" r="2.6" fill="#f59e0b"/><text x="34" y="308" font-family="sans-serif" font-size="12.5" font-weight="500" fill="#cbd5e1">auxiliary/scanner/mysql/mysql_authbypass_hashdump</text><circle cx="21" cy="325" r="2.6" fill="#f59e0b"/><text x="34" y="329" font-family="sans-serif" font-size="12.5" font-weight="500" fill="#cbd5e1">mysql-dump-hashes</text><circle cx="21" cy="346" r="2.6" fill="#f59e0b"/><text x="34" y="350" font-family="sans-serif" font-size="12.5" font-weight="500" fill="#cbd5e1">Metasploit</text><circle cx="21" cy="367" r="2.6" fill="#f59e0b"/><text x="34" y="371" font-family="sans-serif" font-size="12.5" font-weight="500" fill="#cbd5e1">auxiliary/scanner/mysql/mysql_hashdump</text><circle cx="21" cy="388" r="2.6" fill="#f59e0b"/><text x="34" y="392" font-family="sans-serif" font-size="12.5" font-weight="500" fill="#cbd5e1">mysql-empty-password</text><circle cx="21" cy="409" r="2.6" fill="#f59e0b"/><text x="34" y="413" font-family="sans-serif" font-size="12.5" font-weight="500" fill="#cbd5e1">auxiliary/admin/mysql/mysql_enum</text>
    </g>
    </g><g transform="translate(498, 365)">
    <g class="cat-card">
      <rect x="0" y="0" width="480" height="452" rx="10"
            fill="none" stroke="#10b981" stroke-width="1.6" stroke-dasharray="4,3"/>
      <rect x="14" y="-16" width="180.5" height="32" rx="7" fill="#10b981"/>
      <text x="104.25" y="5" text-anchor="middle"
            font-family="'Fira Code', monospace" font-size="12.5" font-weight="800" fill="#04060d">MySQL (Port 3306)</text>
      <circle cx="21" cy="52" r="2.6" fill="#10b981"/><text x="34" y="56" font-family="sans-serif" font-size="12.5" font-weight="500" fill="#cbd5e1">Nmap</text><circle cx="21" cy="73" r="2.6" fill="#10b981"/><text x="34" y="77" font-family="sans-serif" font-size="12.5" font-weight="500" fill="#cbd5e1">mysql-enum</text><circle cx="21" cy="94" r="2.6" fill="#10b981"/><text x="34" y="98" font-family="sans-serif" font-size="12.5" font-weight="500" fill="#cbd5e1">auxiliary/scanner/mysql/mysql_schemadump</text><circle cx="21" cy="115" r="2.6" fill="#10b981"/><text x="34" y="119" font-family="sans-serif" font-size="12.5" font-weight="500" fill="#cbd5e1">mysql-info</text><circle cx="21" cy="136" r="2.6" fill="#10b981"/><text x="34" y="140" font-family="sans-serif" font-size="12.5" font-weight="500" fill="#cbd5e1">mysql commands</text><circle cx="21" cy="157" r="2.6" fill="#10b981"/><text x="34" y="161" font-family="sans-serif" font-size="12.5" font-weight="500" fill="#cbd5e1">mysql-query</text><circle cx="21" cy="178" r="2.6" fill="#10b981"/><text x="34" y="182" font-family="sans-serif" font-size="12.5" font-weight="500" fill="#cbd5e1">mysql-users</text><circle cx="21" cy="199" r="2.6" fill="#10b981"/><text x="34" y="203" font-family="sans-serif" font-size="12.5" font-weight="500" fill="#cbd5e1">mysql-variables</text><circle cx="21" cy="220" r="2.6" fill="#10b981"/><text x="34" y="224" font-family="sans-serif" font-size="12.5" font-weight="500" fill="#cbd5e1">nmap --script</text><circle cx="21" cy="241" r="2.6" fill="#10b981"/><text x="34" y="245" font-family="sans-serif" font-size="12.5" font-weight="500" fill="#cbd5e1">ms-sql-info</text><circle cx="21" cy="262" r="2.6" fill="#10b981"/><text x="34" y="266" font-family="sans-serif" font-size="12.5" font-weight="500" fill="#cbd5e1">ms-sql-empty-password</text><circle cx="21" cy="283" r="2.6" fill="#10b981"/><text x="34" y="287" font-family="sans-serif" font-size="12.5" font-weight="500" fill="#cbd5e1">ms-sql-xp-cmdshell</text><circle cx="21" cy="304" r="2.6" fill="#10b981"/><text x="34" y="308" font-family="sans-serif" font-size="12.5" font-weight="500" fill="#cbd5e1">ms-sql-config</text><circle cx="21" cy="325" r="2.6" fill="#10b981"/><text x="34" y="329" font-family="sans-serif" font-size="12.5" font-weight="500" fill="#cbd5e1">Nmap</text><circle cx="21" cy="346" r="2.6" fill="#10b981"/><text x="34" y="350" font-family="sans-serif" font-size="12.5" font-weight="500" fill="#cbd5e1">ms-sql-ntlm-info</text><circle cx="21" cy="367" r="2.6" fill="#10b981"/><text x="34" y="371" font-family="sans-serif" font-size="12.5" font-weight="500" fill="#cbd5e1">ms-sql-tables</text><circle cx="21" cy="388" r="2.6" fill="#10b981"/><text x="34" y="392" font-family="sans-serif" font-size="12.5" font-weight="500" fill="#cbd5e1">admin/mssql/mssql_enum</text><circle cx="21" cy="409" r="2.6" fill="#10b981"/><text x="34" y="413" font-family="sans-serif" font-size="12.5" font-weight="500" fill="#cbd5e1">ms-sql-hasdbaccess</text>
    </g>
    </g><g transform="translate(1494, 373)">
    <g class="cat-card">
      <rect x="0" y="0" width="480" height="326" rx="10"
            fill="none" stroke="#ef4444" stroke-width="1.6" stroke-dasharray="4,3"/>
      <rect x="14" y="-16" width="180.5" height="32" rx="7" fill="#ef4444"/>
      <text x="104.25" y="5" text-anchor="middle"
            font-family="'Fira Code', monospace" font-size="12.5" font-weight="800" fill="#04060d">MSSQL (Port 1433)</text>
      <circle cx="21" cy="52" r="2.6" fill="#ef4444"/><text x="34" y="56" font-family="sans-serif" font-size="12.5" font-weight="500" fill="#cbd5e1">admin/mssql/mssql_enum_domain_accounts</text><circle cx="21" cy="73" r="2.6" fill="#ef4444"/><text x="34" y="77" font-family="sans-serif" font-size="12.5" font-weight="500" fill="#cbd5e1">Metasploit</text><circle cx="21" cy="94" r="2.6" fill="#ef4444"/><text x="34" y="98" font-family="sans-serif" font-size="12.5" font-weight="500" fill="#cbd5e1">ms-sql-dac</text><circle cx="21" cy="115" r="2.6" fill="#ef4444"/><text x="34" y="119" font-family="sans-serif" font-size="12.5" font-weight="500" fill="#cbd5e1">admin/mssql/mssql_enum_sql_logins</text><circle cx="21" cy="136" r="2.6" fill="#ef4444"/><text x="34" y="140" font-family="sans-serif" font-size="12.5" font-weight="500" fill="#cbd5e1">ms-sql-dump-hashes</text><circle cx="21" cy="157" r="2.6" fill="#ef4444"/><text x="34" y="161" font-family="sans-serif" font-size="12.5" font-weight="500" fill="#cbd5e1">PowerUpSQL</text><circle cx="21" cy="178" r="2.6" fill="#ef4444"/><text x="34" y="182" font-family="sans-serif" font-size="12.5" font-weight="500" fill="#cbd5e1">auxiliary/scanner/postgres/postgres_login</text><circle cx="21" cy="199" r="2.6" fill="#ef4444"/><text x="34" y="203" font-family="sans-serif" font-size="12.5" font-weight="500" fill="#cbd5e1">auxiliary/admin/postgres/postgres_readfile</text><circle cx="21" cy="220" r="2.6" fill="#ef4444"/><text x="34" y="224" font-family="sans-serif" font-size="12.5" font-weight="500" fill="#cbd5e1">auxiliary/admin/postgres/postgres_sql</text><circle cx="21" cy="241" r="2.6" fill="#ef4444"/><text x="34" y="245" font-family="sans-serif" font-size="12.5" font-weight="500" fill="#cbd5e1">Metasploit</text><circle cx="21" cy="262" r="2.6" fill="#ef4444"/><text x="34" y="266" font-family="sans-serif" font-size="12.5" font-weight="500" fill="#cbd5e1">auxiliary/scanner/postgres/postgres_version</text><circle cx="21" cy="283" r="2.6" fill="#ef4444"/><text x="34" y="287" font-family="sans-serif" font-size="12.5" font-weight="500" fill="#cbd5e1">auxiliary/scanner/postgres/postgres_hashdump</text>
    </g>
    </g><g transform="translate(996, 436)">
    <g class="cat-card">
      <rect x="0" y="0" width="480" height="242" rx="10"
            fill="none" stroke="#8b5cf6" stroke-width="1.6" stroke-dasharray="4,3"/>
      <rect x="14" y="-16" width="163.5" height="32" rx="7" fill="#8b5cf6"/>
      <text x="95.75" y="5" text-anchor="middle"
            font-family="'Fira Code', monospace" font-size="12.5" font-weight="800" fill="#04060d">Postgres (5432)</text>
      <circle cx="21" cy="52" r="2.6" fill="#8b5cf6"/><text x="34" y="56" font-family="sans-serif" font-size="12.5" font-weight="500" fill="#cbd5e1">auxiliary/scanner/postgres/postgres_schemadump</text><circle cx="21" cy="73" r="2.6" fill="#8b5cf6"/><text x="34" y="77" font-family="sans-serif" font-size="12.5" font-weight="500" fill="#cbd5e1">psql</text><circle cx="21" cy="94" r="2.6" fill="#8b5cf6"/><text x="34" y="98" font-family="sans-serif" font-size="12.5" font-weight="500" fill="#cbd5e1">oracle-brute-stealth</text><circle cx="21" cy="115" r="2.6" fill="#8b5cf6"/><text x="34" y="119" font-family="sans-serif" font-size="12.5" font-weight="500" fill="#cbd5e1">oracle-brute</text><circle cx="21" cy="136" r="2.6" fill="#8b5cf6"/><text x="34" y="140" font-family="sans-serif" font-size="12.5" font-weight="500" fill="#cbd5e1">oracle-enum-users</text><circle cx="21" cy="157" r="2.6" fill="#8b5cf6"/><text x="34" y="161" font-family="sans-serif" font-size="12.5" font-weight="500" fill="#cbd5e1">Nmap</text><circle cx="21" cy="178" r="2.6" fill="#8b5cf6"/><text x="34" y="182" font-family="sans-serif" font-size="12.5" font-weight="500" fill="#cbd5e1">oracle-version</text><circle cx="21" cy="199" r="2.6" fill="#8b5cf6"/><text x="34" y="203" font-family="sans-serif" font-size="12.5" font-weight="500" fill="#cbd5e1">oracle-sid-brute</text>
    </g>
    </g><g transform="translate(1992, 583)">
    <g class="cat-card">
      <rect x="0" y="0" width="480" height="221" rx="10"
            fill="none" stroke="#ec4899" stroke-width="1.6" stroke-dasharray="4,3"/>
      <rect x="14" y="-16" width="146.5" height="32" rx="7" fill="#ec4899"/>
      <text x="87.25" y="5" text-anchor="middle"
            font-family="'Fira Code', monospace" font-size="12.5" font-weight="800" fill="#04060d">Oracle (1521)</text>
      <circle cx="21" cy="52" r="2.6" fill="#ec4899"/><text x="34" y="56" font-family="sans-serif" font-size="12.5" font-weight="500" fill="#cbd5e1">oracle-default</text><circle cx="21" cy="73" r="2.6" fill="#ec4899"/><text x="34" y="77" font-family="sans-serif" font-size="12.5" font-weight="500" fill="#cbd5e1">oracle-tns-version</text><circle cx="21" cy="94" r="2.6" fill="#ec4899"/><text x="34" y="98" font-family="sans-serif" font-size="12.5" font-weight="500" fill="#cbd5e1">oracle-sid</text><circle cx="21" cy="115" r="2.6" fill="#ec4899"/><text x="34" y="119" font-family="sans-serif" font-size="12.5" font-weight="500" fill="#cbd5e1">auxiliary/scanner/oracle/spy_sid</text><circle cx="21" cy="136" r="2.6" fill="#ec4899"/><text x="34" y="140" font-family="sans-serif" font-size="12.5" font-weight="500" fill="#cbd5e1">Metasploit</text><circle cx="21" cy="157" r="2.6" fill="#ec4899"/><text x="34" y="161" font-family="sans-serif" font-size="12.5" font-weight="500" fill="#cbd5e1">auxiliary/admin/oracle/oraenum</text><circle cx="21" cy="178" r="2.6" fill="#ec4899"/><text x="34" y="182" font-family="sans-serif" font-size="12.5" font-weight="500" fill="#cbd5e1">showmount</text>
    </g>
    </g><g transform="translate(996, 696)">
    <g class="cat-card">
      <rect x="0" y="0" width="480" height="221" rx="10"
            fill="none" stroke="#3b82f6" stroke-width="1.6" stroke-dasharray="4,3"/>
      <rect x="14" y="-16" width="163.5" height="32" rx="7" fill="#3b82f6"/>
      <text x="95.75" y="5" text-anchor="middle"
            font-family="'Fira Code', monospace" font-size="12.5" font-weight="800" fill="#04060d">NFS (Port 2049)</text>
      <circle cx="21" cy="52" r="2.6" fill="#3b82f6"/><text x="34" y="56" font-family="sans-serif" font-size="12.5" font-weight="500" fill="#cbd5e1">Metasploit: auxiliary/scanner/nfs/nfsmount</text><circle cx="21" cy="73" r="2.6" fill="#3b82f6"/><text x="34" y="77" font-family="sans-serif" font-size="12.5" font-weight="500" fill="#cbd5e1">nfs-ls</text><circle cx="21" cy="94" r="2.6" fill="#3b82f6"/><text x="34" y="98" font-family="sans-serif" font-size="12.5" font-weight="500" fill="#cbd5e1">Nmap</text><circle cx="21" cy="115" r="2.6" fill="#3b82f6"/><text x="34" y="119" font-family="sans-serif" font-size="12.5" font-weight="500" fill="#cbd5e1">nfs-showmount</text><circle cx="21" cy="136" r="2.6" fill="#3b82f6"/><text x="34" y="140" font-family="sans-serif" font-size="12.5" font-weight="500" fill="#cbd5e1">nfs-statfs</text><circle cx="21" cy="157" r="2.6" fill="#3b82f6"/><text x="34" y="161" font-family="sans-serif" font-size="12.5" font-weight="500" fill="#cbd5e1">dnsenum</text><circle cx="21" cy="178" r="2.6" fill="#3b82f6"/><text x="34" y="182" font-family="sans-serif" font-size="12.5" font-weight="500" fill="#cbd5e1">dnsrecon</text>
    </g>
    </g><g transform="translate(1494, 717)">
    <g class="cat-card">
      <rect x="0" y="0" width="480" height="116" rx="10"
            fill="none" stroke="#00f0ff" stroke-width="1.6" stroke-dasharray="4,3"/>
      <rect x="14" y="-16" width="146.5" height="32" rx="7" fill="#00f0ff"/>
      <text x="87.25" y="5" text-anchor="middle"
            font-family="'Fira Code', monospace" font-size="12.5" font-weight="800" fill="#04060d">DNS (Port 53)</text>
      <circle cx="21" cy="52" r="2.6" fill="#00f0ff"/><text x="34" y="56" font-family="sans-serif" font-size="12.5" font-weight="500" fill="#cbd5e1">dnsdict6</text><circle cx="21" cy="73" r="2.6" fill="#00f0ff"/><text x="34" y="77" font-family="sans-serif" font-size="12.5" font-weight="500" fill="#cbd5e1">dig</text>
    </g>
    </g>
  </g>

  <g transform="translate(1326.0, 1170)">
    <rect x="-440" y="-38" width="880" height="76" rx="14" fill="#0b0e1a" stroke="url(#brand-grad)" stroke-width="2"/>
    <text x="0" y="-12" text-anchor="middle" font-size="16" font-weight="800" fill="#ffffff" letter-spacing="3px">
      <tspan fill="#ff0055">RED</tspan><tspan fill="#ffffff">TEAM</tspan><tspan fill="#00f0ff">APT</tspan>
      <tspan fill="#94a3b8" font-size="11"> • </tspan>
      <tspan fill="#a1a1aa" font-size="10.5">OFFICIAL OFFENSIVE SECURITY &amp; ADVERSARY SIMULATION ROADMAP</tspan>
    </text>
    <g transform="translate(-315, 6)">
      <rect width="190" height="26" rx="6" fill="#18181b" stroke="#ff0055" stroke-width="1.2"/>
      <text x="95" y="13" text-anchor="middle" dominant-baseline="middle" font-family="'Fira Code', monospace" font-size="10.5" font-weight="600" fill="#f43f5e">RedTeamAPT.ir</text>

      <rect x="220" width="190" height="26" rx="6" fill="#18181b" stroke="#00f0ff" stroke-width="1.2"/>
      <text x="315" y="13" text-anchor="middle" dominant-baseline="middle" font-family="'Fira Code', monospace" font-size="10.5" font-weight="600" fill="#38bdf8">TELEGRAM : @RedTeamAcademy</text>

      <rect x="440" width="190" height="26" rx="6" fill="#18181b" stroke="#a855f7" stroke-width="1.2"/>
      <text x="535" y="13" text-anchor="middle" dominant-baseline="middle" font-family="'Fira Code', monospace" font-size="10.5" font-weight="600" fill="#c084fc">GITHUB : RedTeamAPT</text>
    </g>
  </g>
</svg>