<?xml version="1.0" encoding="UTF-8"?>
<svg xmlns="http://www.w3.org/2000/svg" viewBox="0 0 1656 1771" width="100%" height="100%">
  <defs>
    <linearGradient id="canvas-bg" x1="0%" y1="0%" x2="100%" y2="100%">
      <stop offset="0%" stop-color="#04060d"/>
      <stop offset="50%" stop-color="#080c1d"/>
      <stop offset="100%" stop-color="#020306"/>
    </linearGradient>
    <linearGradient id="brand-grad" x1="0%" y1="0%" x2="100%" y2="0%">
      <stop offset="0%" stop-color="#ff0055"/>
      <stop offset="50%" stop-color="#7928ca"/>
      <stop offset="100%" stop-color="#00f0ff"/>
    </linearGradient>
    <style>
      @import url('https://fonts.googleapis.com/css2?family=Fira+Code:wght@400;500;600;700&amp;family=Inter:wght@400;600;700;800&amp;display=swap');
      text { font-family: 'Inter', -apple-system, sans-serif; }
      .code-font { font-family: 'Fira Code', monospace; }
    </style>
  </defs>
  <rect width="1656" height="1771" fill="url(#canvas-bg)"/>
  <g opacity="0.03" stroke="#ffffff" stroke-width="1">
    <pattern id="grid" width="40" height="40" patternUnits="userSpaceOnUse">
      <path d="M 40 0 L 0 0 0 40" fill="none"/>
    </pattern>
    <rect width="1656" height="1771" fill="url(#grid)"/>
  </g>
  <g transform="rotate(-25 828.0 885.5)" opacity="0.035" pointer-events="none">
    <text x="828.0" y="442.75" text-anchor="middle" font-family="monospace" font-weight="900" font-size="110" fill="#ffffff" letter-spacing="16px">REDTEAMAPT.IR</text>
    <text x="828.0" y="885.5" text-anchor="middle" font-family="monospace" font-weight="900" font-size="110" fill="#ffffff" letter-spacing="16px">REDTEAMAPT.IR</text>
    <text x="828.0" y="1328.25" text-anchor="middle" font-family="monospace" font-weight="900" font-size="110" fill="#ffffff" letter-spacing="16px">REDTEAMAPT.IR</text>
  </g>

  <g transform="translate(828.0, 75)">
    <rect x="-400.0" y="-46.0" width="800" height="92" rx="18" fill="#0c1224" stroke="url(#brand-grad)" stroke-width="2.5"/>
    <text x="0" y="2" text-anchor="middle" font-family="'Fira Code', monospace" font-size="30" font-weight="800" fill="#ffffff">
      <tspan fill="#ff0055">RED</tspan><tspan fill="#ffffff">TEAM</tspan><tspan fill="#00f0ff">APT</tspan>
      <tspan fill="#94a3b8" font-size="22"> | </tspan>
      <tspan fill="#38bdf8">FFUF</tspan>
    </text>
    <text x="0" y="26" text-anchor="middle" font-family="'Inter', sans-serif" font-size="12" font-weight="600" fill="#94a3b8" letter-spacing="3px">ADVANCED OFFENSIVE CYBERSECURITY &amp; RED TEAM ROADMAP</text>
  </g>

  <g transform="translate(90, 170)">
    <g transform="translate(0, 0)">
    <g class="cat-card">
      <rect x="0" y="0" width="480" height="419" rx="10"
            fill="none" stroke="#00f0ff" stroke-width="1.6" stroke-dasharray="4,3"/>
      <rect x="14" y="-16" width="140" height="32" rx="7" fill="#00f0ff"/>
      <text x="84.0" y="5" text-anchor="middle"
            font-family="'Fira Code', monospace" font-size="12.5" font-weight="800" fill="#04060d">-H</text>
      <circle cx="21" cy="52" r="2.6" fill="#00f0ff"/><text x="34" y="56" font-family="sans-serif" font-size="12.5" font-weight="500" fill="#cbd5e1">Header `&quot;Name: Value&quot;`, separated by colon. Multiple -H flags</text><text x="34" y="73" font-family="sans-serif" font-size="12.5" font-weight="500" fill="#cbd5e1">are accepted.</text><circle cx="21" cy="90" r="2.6" fill="#00f0ff"/><text x="34" y="94" font-family="sans-serif" font-size="12.5" font-weight="500" fill="#cbd5e1">Maximum recursion depth. (default: 0)</text><circle cx="21" cy="111" r="2.6" fill="#00f0ff"/><text x="34" y="115" font-family="sans-serif" font-size="12.5" font-weight="500" fill="#cbd5e1">-recursion-depth</text><circle cx="21" cy="132" r="2.6" fill="#00f0ff"/><text x="34" y="136" font-family="sans-serif" font-size="12.5" font-weight="500" fill="#cbd5e1">-X</text><circle cx="21" cy="153" r="2.6" fill="#00f0ff"/><text x="34" y="157" font-family="sans-serif" font-size="12.5" font-weight="500" fill="#cbd5e1">HTTP method to use</text><circle cx="21" cy="174" r="2.6" fill="#00f0ff"/><text x="34" y="178" font-family="sans-serif" font-size="12.5" font-weight="500" fill="#cbd5e1">Recursion strategy: &quot;default&quot; for a redirect based, and</text><text x="34" y="195" font-family="sans-serif" font-size="12.5" font-weight="500" fill="#cbd5e1">&quot;greedy&quot; to recurse on all matches</text><circle cx="21" cy="212" r="2.6" fill="#00f0ff"/><text x="34" y="216" font-family="sans-serif" font-size="12.5" font-weight="500" fill="#cbd5e1">-recursion-strategy</text><circle cx="21" cy="233" r="2.6" fill="#00f0ff"/><text x="34" y="237" font-family="sans-serif" font-size="12.5" font-weight="500" fill="#cbd5e1">(default: default)</text><circle cx="21" cy="254" r="2.6" fill="#00f0ff"/><text x="34" y="258" font-family="sans-serif" font-size="12.5" font-weight="500" fill="#cbd5e1">-b</text><circle cx="21" cy="275" r="2.6" fill="#00f0ff"/><text x="34" y="279" font-family="sans-serif" font-size="12.5" font-weight="500" fill="#cbd5e1">Cookie data `&quot;NAME1=VALUE1; NAME2=VALUE2&quot;` for copy as curl</text><text x="34" y="296" font-family="sans-serif" font-size="12.5" font-weight="500" fill="#cbd5e1">functionality.</text><circle cx="21" cy="313" r="2.6" fill="#00f0ff"/><text x="34" y="317" font-family="sans-serif" font-size="12.5" font-weight="500" fill="#cbd5e1">Replay matched requests using this proxy.</text><circle cx="21" cy="334" r="2.6" fill="#00f0ff"/><text x="34" y="338" font-family="sans-serif" font-size="12.5" font-weight="500" fill="#cbd5e1">-replay-proxy</text><circle cx="21" cy="355" r="2.6" fill="#00f0ff"/><text x="34" y="359" font-family="sans-serif" font-size="12.5" font-weight="500" fill="#cbd5e1">-d</text><circle cx="21" cy="376" r="2.6" fill="#00f0ff"/><text x="34" y="380" font-family="sans-serif" font-size="12.5" font-weight="500" fill="#cbd5e1">POST data</text>
    </g>
    </g><g transform="translate(498, 0)">
    <g class="cat-card">
      <rect x="0" y="0" width="480" height="915" rx="10"
            fill="none" stroke="#f59e0b" stroke-width="1.6" stroke-dasharray="4,3"/>
      <rect x="14" y="-16" width="140" height="32" rx="7" fill="#f59e0b"/>
      <text x="84.0" y="5" text-anchor="middle"
            font-family="'Fira Code', monospace" font-size="12.5" font-weight="800" fill="#04060d">HTTP OPTIONS</text>
      <circle cx="21" cy="52" r="2.6" fill="#f59e0b"/><text x="34" y="56" font-family="sans-serif" font-size="12.5" font-weight="500" fill="#cbd5e1">Target TLS SNI, does not support FUZZ keyword</text><circle cx="21" cy="73" r="2.6" fill="#f59e0b"/><text x="34" y="77" font-family="sans-serif" font-size="12.5" font-weight="500" fill="#cbd5e1">-sni</text><circle cx="21" cy="94" r="2.6" fill="#f59e0b"/><text x="34" y="98" font-family="sans-serif" font-size="12.5" font-weight="500" fill="#cbd5e1">-http2</text><circle cx="21" cy="115" r="2.6" fill="#f59e0b"/><text x="34" y="119" font-family="sans-serif" font-size="12.5" font-weight="500" fill="#cbd5e1">Use HTTP2 protocol (default: false)</text><circle cx="21" cy="136" r="2.6" fill="#f59e0b"/><text x="34" y="140" font-family="sans-serif" font-size="12.5" font-weight="500" fill="#cbd5e1">HTTP request timeout in seconds. (default: 10)</text><circle cx="21" cy="157" r="2.6" fill="#f59e0b"/><text x="34" y="161" font-family="sans-serif" font-size="12.5" font-weight="500" fill="#cbd5e1">-timeout</text><circle cx="21" cy="178" r="2.6" fill="#f59e0b"/><text x="34" y="182" font-family="sans-serif" font-size="12.5" font-weight="500" fill="#cbd5e1">-ignore-body</text><circle cx="21" cy="199" r="2.6" fill="#f59e0b"/><text x="34" y="203" font-family="sans-serif" font-size="12.5" font-weight="500" fill="#cbd5e1">Do not fetch the response content. (default: false)</text><circle cx="21" cy="220" r="2.6" fill="#f59e0b"/><text x="34" y="224" font-family="sans-serif" font-size="12.5" font-weight="500" fill="#cbd5e1">Target URL</text><circle cx="21" cy="241" r="2.6" fill="#f59e0b"/><text x="34" y="245" font-family="sans-serif" font-size="12.5" font-weight="500" fill="#cbd5e1">-u</text><circle cx="21" cy="262" r="2.6" fill="#f59e0b"/><text x="34" y="266" font-family="sans-serif" font-size="12.5" font-weight="500" fill="#cbd5e1">-r</text><circle cx="21" cy="283" r="2.6" fill="#f59e0b"/><text x="34" y="287" font-family="sans-serif" font-size="12.5" font-weight="500" fill="#cbd5e1">Follow redirects (default: false)</text><circle cx="21" cy="304" r="2.6" fill="#f59e0b"/><text x="34" y="308" font-family="sans-serif" font-size="12.5" font-weight="500" fill="#cbd5e1">Proxy URL (SOCKS5 or HTTP). For example:</text><text x="34" y="325" font-family="sans-serif" font-size="12.5" font-weight="500" fill="#cbd5e1">http://127.0.0.1:8080 or socks5://127.0.0.1:8080</text><circle cx="21" cy="342" r="2.6" fill="#f59e0b"/><text x="34" y="346" font-family="sans-serif" font-size="12.5" font-weight="500" fill="#cbd5e1">-x</text><circle cx="21" cy="363" r="2.6" fill="#f59e0b"/><text x="34" y="367" font-family="sans-serif" font-size="12.5" font-weight="500" fill="#cbd5e1">-recursion</text><circle cx="21" cy="384" r="2.6" fill="#f59e0b"/><text x="34" y="388" font-family="sans-serif" font-size="12.5" font-weight="500" fill="#cbd5e1">Scan recursively. Only FUZZ keyword is supported, and URL</text><text x="34" y="405" font-family="sans-serif" font-size="12.5" font-weight="500" fill="#cbd5e1">(-u) has to end in it. (default: false)</text><circle cx="21" cy="422" r="2.6" fill="#f59e0b"/><text x="34" y="426" font-family="sans-serif" font-size="12.5" font-weight="500" fill="#cbd5e1">-V</text><circle cx="21" cy="443" r="2.6" fill="#f59e0b"/><text x="34" y="447" font-family="sans-serif" font-size="12.5" font-weight="500" fill="#cbd5e1">Show version information. (default: false)</text><circle cx="21" cy="464" r="2.6" fill="#f59e0b"/><text x="34" y="468" font-family="sans-serif" font-size="12.5" font-weight="500" fill="#cbd5e1">Maximum running time in seconds per job. (default: 0)</text><circle cx="21" cy="485" r="2.6" fill="#f59e0b"/><text x="34" y="489" font-family="sans-serif" font-size="12.5" font-weight="500" fill="#cbd5e1">-maxtime-job</text><circle cx="21" cy="506" r="2.6" fill="#f59e0b"/><text x="34" y="510" font-family="sans-serif" font-size="12.5" font-weight="500" fill="#cbd5e1">-ac</text><circle cx="21" cy="527" r="2.6" fill="#f59e0b"/><text x="34" y="531" font-family="sans-serif" font-size="12.5" font-weight="500" fill="#cbd5e1">Automatically calibrate filtering options (default: false)</text><circle cx="21" cy="548" r="2.6" fill="#f59e0b"/><text x="34" y="552" font-family="sans-serif" font-size="12.5" font-weight="500" fill="#cbd5e1">Disable the interactive console functionality (default:</text><text x="34" y="569" font-family="sans-serif" font-size="12.5" font-weight="500" fill="#cbd5e1">false)</text><circle cx="21" cy="586" r="2.6" fill="#f59e0b"/><text x="34" y="590" font-family="sans-serif" font-size="12.5" font-weight="500" fill="#cbd5e1">-noninteractive</text><circle cx="21" cy="607" r="2.6" fill="#f59e0b"/><text x="34" y="611" font-family="sans-serif" font-size="12.5" font-weight="500" fill="#cbd5e1">-acc</text><circle cx="21" cy="628" r="2.6" fill="#f59e0b"/><text x="34" y="632" font-family="sans-serif" font-size="12.5" font-weight="500" fill="#cbd5e1">Custom auto-calibration string. Can be used multiple</text><circle cx="21" cy="649" r="2.6" fill="#f59e0b"/><text x="34" y="653" font-family="sans-serif" font-size="12.5" font-weight="500" fill="#cbd5e1">Seconds of `delay` between requests, or a range of random</text><text x="34" y="670" font-family="sans-serif" font-size="12.5" font-weight="500" fill="#cbd5e1">delay. For example &quot;0.1&quot; or &quot;0.1-2.0&quot;</text><circle cx="21" cy="687" r="2.6" fill="#f59e0b"/><text x="34" y="691" font-family="sans-serif" font-size="12.5" font-weight="500" fill="#cbd5e1">-p</text><circle cx="21" cy="708" r="2.6" fill="#f59e0b"/><text x="34" y="712" font-family="sans-serif" font-size="12.5" font-weight="500" fill="#cbd5e1">-ach</text><circle cx="21" cy="729" r="2.6" fill="#f59e0b"/><text x="34" y="733" font-family="sans-serif" font-size="12.5" font-weight="500" fill="#cbd5e1">Per host autocalibration (default: false)</text><circle cx="21" cy="750" r="2.6" fill="#f59e0b"/><text x="34" y="754" font-family="sans-serif" font-size="12.5" font-weight="500" fill="#cbd5e1">Rate of requests per second (default: 0)</text><circle cx="21" cy="771" r="2.6" fill="#f59e0b"/><text x="34" y="775" font-family="sans-serif" font-size="12.5" font-weight="500" fill="#cbd5e1">-rate</text><circle cx="21" cy="792" r="2.6" fill="#f59e0b"/><text x="34" y="796" font-family="sans-serif" font-size="12.5" font-weight="500" fill="#cbd5e1">-ack</text><circle cx="21" cy="813" r="2.6" fill="#f59e0b"/><text x="34" y="817" font-family="sans-serif" font-size="12.5" font-weight="500" fill="#cbd5e1">Autocalibration keyword (default: FUZZ)</text><circle cx="21" cy="834" r="2.6" fill="#f59e0b"/><text x="34" y="838" font-family="sans-serif" font-size="12.5" font-weight="500" fill="#cbd5e1">Do not print additional information (silent mode) (default:</text><text x="34" y="855" font-family="sans-serif" font-size="12.5" font-weight="500" fill="#cbd5e1">false)</text><circle cx="21" cy="872" r="2.6" fill="#f59e0b"/><text x="34" y="876" font-family="sans-serif" font-size="12.5" font-weight="500" fill="#cbd5e1">-s</text>
    </g>
    </g><g transform="translate(996, 0)">
    <g class="cat-card">
      <rect x="0" y="0" width="480" height="739" rx="10"
            fill="none" stroke="#10b981" stroke-width="1.6" stroke-dasharray="4,3"/>
      <rect x="14" y="-16" width="163.5" height="32" rx="7" fill="#10b981"/>
      <text x="95.75" y="5" text-anchor="middle"
            font-family="'Fira Code', monospace" font-size="12.5" font-weight="800" fill="#04060d">GENERAL OPTIONS</text>
      <circle cx="21" cy="52" r="2.6" fill="#10b981"/><text x="34" y="56" font-family="sans-serif" font-size="12.5" font-weight="500" fill="#cbd5e1">-acs</text><circle cx="21" cy="73" r="2.6" fill="#10b981"/><text x="34" y="77" font-family="sans-serif" font-size="12.5" font-weight="500" fill="#cbd5e1">Autocalibration strategy: &quot;basic&quot; or &quot;advanced&quot; (default:</text><text x="34" y="94" font-family="sans-serif" font-size="12.5" font-weight="500" fill="#cbd5e1">basic)</text><circle cx="21" cy="111" r="2.6" fill="#10b981"/><text x="34" y="115" font-family="sans-serif" font-size="12.5" font-weight="500" fill="#cbd5e1">Stop on all error cases. Implies -sf and -se. (default:</text><text x="34" y="132" font-family="sans-serif" font-size="12.5" font-weight="500" fill="#cbd5e1">false)</text><circle cx="21" cy="149" r="2.6" fill="#10b981"/><text x="34" y="153" font-family="sans-serif" font-size="12.5" font-weight="500" fill="#cbd5e1">-sa</text><circle cx="21" cy="170" r="2.6" fill="#10b981"/><text x="34" y="174" font-family="sans-serif" font-size="12.5" font-weight="500" fill="#cbd5e1">-c</text><circle cx="21" cy="191" r="2.6" fill="#10b981"/><text x="34" y="195" font-family="sans-serif" font-size="12.5" font-weight="500" fill="#cbd5e1">Colorize output. (default: false)</text><circle cx="21" cy="212" r="2.6" fill="#10b981"/><text x="34" y="216" font-family="sans-serif" font-size="12.5" font-weight="500" fill="#cbd5e1">Stop on spurious errors (default: false)</text><circle cx="21" cy="233" r="2.6" fill="#10b981"/><text x="34" y="237" font-family="sans-serif" font-size="12.5" font-weight="500" fill="#cbd5e1">-se</text><circle cx="21" cy="254" r="2.6" fill="#10b981"/><text x="34" y="258" font-family="sans-serif" font-size="12.5" font-weight="500" fill="#cbd5e1">-config</text><circle cx="21" cy="275" r="2.6" fill="#10b981"/><text x="34" y="279" font-family="sans-serif" font-size="12.5" font-weight="500" fill="#cbd5e1">Load configuration from a file</text><circle cx="21" cy="296" r="2.6" fill="#10b981"/><text x="34" y="300" font-family="sans-serif" font-size="12.5" font-weight="500" fill="#cbd5e1">Stop when &gt; 95% of responses return 403 Forbidden (default:</text><text x="34" y="317" font-family="sans-serif" font-size="12.5" font-weight="500" fill="#cbd5e1">false)</text><circle cx="21" cy="334" r="2.6" fill="#10b981"/><text x="34" y="338" font-family="sans-serif" font-size="12.5" font-weight="500" fill="#cbd5e1">-sf</text><circle cx="21" cy="355" r="2.6" fill="#10b981"/><text x="34" y="359" font-family="sans-serif" font-size="12.5" font-weight="500" fill="#cbd5e1">-json</text><circle cx="21" cy="376" r="2.6" fill="#10b981"/><text x="34" y="380" font-family="sans-serif" font-size="12.5" font-weight="500" fill="#cbd5e1">Number of concurrent threads. (default: 40)</text><circle cx="21" cy="397" r="2.6" fill="#10b981"/><text x="34" y="401" font-family="sans-serif" font-size="12.5" font-weight="500" fill="#cbd5e1">-t</text><circle cx="21" cy="418" r="2.6" fill="#10b981"/><text x="34" y="422" font-family="sans-serif" font-size="12.5" font-weight="500" fill="#cbd5e1">JSON output, printing newline-delimited JSON records</text><text x="34" y="439" font-family="sans-serif" font-size="12.5" font-weight="500" fill="#cbd5e1">(default: false)</text><circle cx="21" cy="456" r="2.6" fill="#10b981"/><text x="34" y="460" font-family="sans-serif" font-size="12.5" font-weight="500" fill="#cbd5e1">Verbose output, printing full URL and redirect location (if</text><text x="34" y="477" font-family="sans-serif" font-size="12.5" font-weight="500" fill="#cbd5e1">any) with the results. (default: false)</text><circle cx="21" cy="494" r="2.6" fill="#10b981"/><text x="34" y="498" font-family="sans-serif" font-size="12.5" font-weight="500" fill="#cbd5e1">-v</text><circle cx="21" cy="515" r="2.6" fill="#10b981"/><text x="34" y="519" font-family="sans-serif" font-size="12.5" font-weight="500" fill="#cbd5e1">-maxtime</text><circle cx="21" cy="536" r="2.6" fill="#10b981"/><text x="34" y="540" font-family="sans-serif" font-size="12.5" font-weight="500" fill="#cbd5e1">Maximum running time in seconds for entire process. (default:</text><text x="34" y="557" font-family="sans-serif" font-size="12.5" font-weight="500" fill="#cbd5e1">0)</text><circle cx="21" cy="574" r="2.6" fill="#10b981"/><text x="34" y="578" font-family="sans-serif" font-size="12.5" font-weight="500" fill="#cbd5e1">-mc</text><circle cx="21" cy="595" r="2.6" fill="#10b981"/><text x="34" y="599" font-family="sans-serif" font-size="12.5" font-weight="500" fill="#cbd5e1">Match HTTP status codes, or &quot;all&quot; for everything. (default:</text><text x="34" y="616" font-family="sans-serif" font-size="12.5" font-weight="500" fill="#cbd5e1">200,204,301,302,307,401,403,405,500)</text><circle cx="21" cy="633" r="2.6" fill="#10b981"/><text x="34" y="637" font-family="sans-serif" font-size="12.5" font-weight="500" fill="#cbd5e1">Match HTTP response size</text><circle cx="21" cy="654" r="2.6" fill="#10b981"/><text x="34" y="658" font-family="sans-serif" font-size="12.5" font-weight="500" fill="#cbd5e1">-ms</text><circle cx="21" cy="675" r="2.6" fill="#10b981"/><text x="34" y="679" font-family="sans-serif" font-size="12.5" font-weight="500" fill="#cbd5e1">-ml</text><circle cx="21" cy="696" r="2.6" fill="#10b981"/><text x="34" y="700" font-family="sans-serif" font-size="12.5" font-weight="500" fill="#cbd5e1">Match amount of lines in response</text>
    </g>
    </g><g transform="translate(0, 437)">
    <g class="cat-card">
      <rect x="0" y="0" width="480" height="516" rx="10"
            fill="none" stroke="#ef4444" stroke-width="1.6" stroke-dasharray="4,3"/>
      <rect x="14" y="-16" width="163.5" height="32" rx="7" fill="#ef4444"/>
      <text x="95.75" y="5" text-anchor="middle"
            font-family="'Fira Code', monospace" font-size="12.5" font-weight="800" fill="#04060d">MATCHER OPTIONS</text>
      <circle cx="21" cy="52" r="2.6" fill="#ef4444"/><text x="34" y="56" font-family="sans-serif" font-size="12.5" font-weight="500" fill="#cbd5e1">Match how many milliseconds to the first response byte,</text><text x="34" y="73" font-family="sans-serif" font-size="12.5" font-weight="500" fill="#cbd5e1">either greater or less than. EG: &gt;100 or &lt;100</text><circle cx="21" cy="90" r="2.6" fill="#ef4444"/><text x="34" y="94" font-family="sans-serif" font-size="12.5" font-weight="500" fill="#cbd5e1">-mt</text><circle cx="21" cy="111" r="2.6" fill="#ef4444"/><text x="34" y="115" font-family="sans-serif" font-size="12.5" font-weight="500" fill="#cbd5e1">-mmode</text><circle cx="21" cy="132" r="2.6" fill="#ef4444"/><text x="34" y="136" font-family="sans-serif" font-size="12.5" font-weight="500" fill="#cbd5e1">Matcher set operator. Either of: and, or (default: or)</text><circle cx="21" cy="153" r="2.6" fill="#ef4444"/><text x="34" y="157" font-family="sans-serif" font-size="12.5" font-weight="500" fill="#cbd5e1">Match amount of words in response</text><circle cx="21" cy="174" r="2.6" fill="#ef4444"/><text x="34" y="178" font-family="sans-serif" font-size="12.5" font-weight="500" fill="#cbd5e1">-mw</text><circle cx="21" cy="195" r="2.6" fill="#ef4444"/><text x="34" y="199" font-family="sans-serif" font-size="12.5" font-weight="500" fill="#cbd5e1">-mr</text><circle cx="21" cy="216" r="2.6" fill="#ef4444"/><text x="34" y="220" font-family="sans-serif" font-size="12.5" font-weight="500" fill="#cbd5e1">Match regexp</text><circle cx="21" cy="237" r="2.6" fill="#ef4444"/><text x="34" y="241" font-family="sans-serif" font-size="12.5" font-weight="500" fill="#cbd5e1">Filter HTTP status codes from response. Comma separated list</text><text x="34" y="258" font-family="sans-serif" font-size="12.5" font-weight="500" fill="#cbd5e1">of codes</text><circle cx="21" cy="275" r="2.6" fill="#ef4444"/><text x="34" y="279" font-family="sans-serif" font-size="12.5" font-weight="500" fill="#cbd5e1">-fc</text><circle cx="21" cy="296" r="2.6" fill="#ef4444"/><text x="34" y="300" font-family="sans-serif" font-size="12.5" font-weight="500" fill="#cbd5e1">and ranges</text><circle cx="21" cy="317" r="2.6" fill="#ef4444"/><text x="34" y="321" font-family="sans-serif" font-size="12.5" font-weight="500" fill="#cbd5e1">Filter HTTP response size. Comma separated list of sizes and</text><text x="34" y="338" font-family="sans-serif" font-size="12.5" font-weight="500" fill="#cbd5e1">ranges</text><circle cx="21" cy="355" r="2.6" fill="#ef4444"/><text x="34" y="359" font-family="sans-serif" font-size="12.5" font-weight="500" fill="#cbd5e1">-fs</text><circle cx="21" cy="376" r="2.6" fill="#ef4444"/><text x="34" y="380" font-family="sans-serif" font-size="12.5" font-weight="500" fill="#cbd5e1">Filter by amount of lines in response. Comma separated list</text><text x="34" y="397" font-family="sans-serif" font-size="12.5" font-weight="500" fill="#cbd5e1">of line</text><circle cx="21" cy="414" r="2.6" fill="#ef4444"/><text x="34" y="418" font-family="sans-serif" font-size="12.5" font-weight="500" fill="#cbd5e1">Filter by number of milliseconds to the first response byte,</text><text x="34" y="435" font-family="sans-serif" font-size="12.5" font-weight="500" fill="#cbd5e1">either greater or less than. EG:</text><circle cx="21" cy="452" r="2.6" fill="#ef4444"/><text x="34" y="456" font-family="sans-serif" font-size="12.5" font-weight="500" fill="#cbd5e1">-fl</text><circle cx="21" cy="473" r="2.6" fill="#ef4444"/><text x="34" y="477" font-family="sans-serif" font-size="12.5" font-weight="500" fill="#cbd5e1">-ft</text>
    </g>
    </g><g transform="translate(996, 757)">
    <g class="cat-card">
      <rect x="0" y="0" width="480" height="566" rx="10"
            fill="none" stroke="#8b5cf6" stroke-width="1.6" stroke-dasharray="4,3"/>
      <rect x="14" y="-16" width="155.0" height="32" rx="7" fill="#8b5cf6"/>
      <text x="91.5" y="5" text-anchor="middle"
            font-family="'Fira Code', monospace" font-size="12.5" font-weight="800" fill="#04060d">FILTER OPTIONS</text>
      <circle cx="21" cy="52" r="2.6" fill="#8b5cf6"/><text x="34" y="56" font-family="sans-serif" font-size="12.5" font-weight="500" fill="#cbd5e1">counts and ranges</text><circle cx="21" cy="73" r="2.6" fill="#8b5cf6"/><text x="34" y="77" font-family="sans-serif" font-size="12.5" font-weight="500" fill="#cbd5e1">&gt;100 or &lt;100</text><circle cx="21" cy="94" r="2.6" fill="#8b5cf6"/><text x="34" y="98" font-family="sans-serif" font-size="12.5" font-weight="500" fill="#cbd5e1">-fmode</text><circle cx="21" cy="115" r="2.6" fill="#8b5cf6"/><text x="34" y="119" font-family="sans-serif" font-size="12.5" font-weight="500" fill="#cbd5e1">Filter set operator. Either of: and, or (default: or)</text><circle cx="21" cy="136" r="2.6" fill="#8b5cf6"/><text x="34" y="140" font-family="sans-serif" font-size="12.5" font-weight="500" fill="#cbd5e1">Filter by amount of words in response. Comma separated list</text><text x="34" y="157" font-family="sans-serif" font-size="12.5" font-weight="500" fill="#cbd5e1">of word counts</text><circle cx="21" cy="174" r="2.6" fill="#8b5cf6"/><text x="34" y="178" font-family="sans-serif" font-size="12.5" font-weight="500" fill="#cbd5e1">-fw</text><circle cx="21" cy="195" r="2.6" fill="#8b5cf6"/><text x="34" y="199" font-family="sans-serif" font-size="12.5" font-weight="500" fill="#cbd5e1">and ranges</text><circle cx="21" cy="216" r="2.6" fill="#8b5cf6"/><text x="34" y="220" font-family="sans-serif" font-size="12.5" font-weight="500" fill="#cbd5e1">-fr</text><circle cx="21" cy="237" r="2.6" fill="#8b5cf6"/><text x="34" y="241" font-family="sans-serif" font-size="12.5" font-weight="500" fill="#cbd5e1">Filter regexp</text><circle cx="21" cy="258" r="2.6" fill="#8b5cf6"/><text x="34" y="262" font-family="sans-serif" font-size="12.5" font-weight="500" fill="#cbd5e1">DirSearch wordlist compatibility mode. Used in conjunction</text><text x="34" y="279" font-family="sans-serif" font-size="12.5" font-weight="500" fill="#cbd5e1">with -e flag.</text><circle cx="21" cy="296" r="2.6" fill="#8b5cf6"/><text x="34" y="300" font-family="sans-serif" font-size="12.5" font-weight="500" fill="#cbd5e1">-D</text><circle cx="21" cy="317" r="2.6" fill="#8b5cf6"/><text x="34" y="321" font-family="sans-serif" font-size="12.5" font-weight="500" fill="#cbd5e1">Shell to be used for running command</text><circle cx="21" cy="338" r="2.6" fill="#8b5cf6"/><text x="34" y="342" font-family="sans-serif" font-size="12.5" font-weight="500" fill="#cbd5e1">-input-shell</text><circle cx="21" cy="359" r="2.6" fill="#8b5cf6"/><text x="34" y="363" font-family="sans-serif" font-size="12.5" font-weight="500" fill="#cbd5e1">(default: false)</text><circle cx="21" cy="380" r="2.6" fill="#8b5cf6"/><text x="34" y="384" font-family="sans-serif" font-size="12.5" font-weight="500" fill="#cbd5e1">Multi-wordlist operation mode. Available modes: clusterbomb,</text><text x="34" y="401" font-family="sans-serif" font-size="12.5" font-weight="500" fill="#cbd5e1">pitchfork, sniper</text><circle cx="21" cy="418" r="2.6" fill="#8b5cf6"/><text x="34" y="422" font-family="sans-serif" font-size="12.5" font-weight="500" fill="#cbd5e1">-e</text><circle cx="21" cy="439" r="2.6" fill="#8b5cf6"/><text x="34" y="443" font-family="sans-serif" font-size="12.5" font-weight="500" fill="#cbd5e1">Comma separated list of extensions. Extends FUZZ keyword.</text><circle cx="21" cy="460" r="2.6" fill="#8b5cf6"/><text x="34" y="464" font-family="sans-serif" font-size="12.5" font-weight="500" fill="#cbd5e1">-mode</text><circle cx="21" cy="481" r="2.6" fill="#8b5cf6"/><text x="34" y="485" font-family="sans-serif" font-size="12.5" font-weight="500" fill="#cbd5e1">(default: clusterbomb)</text><circle cx="21" cy="502" r="2.6" fill="#8b5cf6"/><text x="34" y="506" font-family="sans-serif" font-size="12.5" font-weight="500" fill="#cbd5e1">-ic</text><circle cx="21" cy="523" r="2.6" fill="#8b5cf6"/><text x="34" y="527" font-family="sans-serif" font-size="12.5" font-weight="500" fill="#cbd5e1">Ignore wordlist comments (default: false)</text>
    </g>
    </g><g transform="translate(498, 933)">
    <g class="cat-card">
      <rect x="0" y="0" width="480" height="520" rx="10"
            fill="none" stroke="#ec4899" stroke-width="1.6" stroke-dasharray="4,3"/>
      <rect x="14" y="-16" width="146.5" height="32" rx="7" fill="#ec4899"/>
      <text x="87.25" y="5" text-anchor="middle"
            font-family="'Fira Code', monospace" font-size="12.5" font-weight="800" fill="#04060d">INPUT OPTIONS</text>
      <circle cx="21" cy="52" r="2.6" fill="#ec4899"/><text x="34" y="56" font-family="sans-serif" font-size="12.5" font-weight="500" fill="#cbd5e1">File containing the raw http request</text><circle cx="21" cy="73" r="2.6" fill="#ec4899"/><text x="34" y="77" font-family="sans-serif" font-size="12.5" font-weight="500" fill="#cbd5e1">-request</text><circle cx="21" cy="94" r="2.6" fill="#ec4899"/><text x="34" y="98" font-family="sans-serif" font-size="12.5" font-weight="500" fill="#cbd5e1">Command producing the input. --input-num is required when</text><text x="34" y="115" font-family="sans-serif" font-size="12.5" font-weight="500" fill="#cbd5e1">using this input</text><circle cx="21" cy="132" r="2.6" fill="#ec4899"/><text x="34" y="136" font-family="sans-serif" font-size="12.5" font-weight="500" fill="#cbd5e1">-input-cmd</text><circle cx="21" cy="153" r="2.6" fill="#ec4899"/><text x="34" y="157" font-family="sans-serif" font-size="12.5" font-weight="500" fill="#cbd5e1">Protocol to use along with raw request (default: https)</text><circle cx="21" cy="174" r="2.6" fill="#ec4899"/><text x="34" y="178" font-family="sans-serif" font-size="12.5" font-weight="500" fill="#cbd5e1">-request-proto</text><circle cx="21" cy="195" r="2.6" fill="#ec4899"/><text x="34" y="199" font-family="sans-serif" font-size="12.5" font-weight="500" fill="#cbd5e1">method. Overrides -w.</text><circle cx="21" cy="216" r="2.6" fill="#ec4899"/><text x="34" y="220" font-family="sans-serif" font-size="12.5" font-weight="500" fill="#cbd5e1">Wordlist file path and (optional) keyword separated by colon.</text><text x="34" y="237" font-family="sans-serif" font-size="12.5" font-weight="500" fill="#cbd5e1">eg. &apos;/path/to/</text><circle cx="21" cy="254" r="2.6" fill="#ec4899"/><text x="34" y="258" font-family="sans-serif" font-size="12.5" font-weight="500" fill="#cbd5e1">Number of inputs to test. Used in conjunction with</text><text x="34" y="275" font-family="sans-serif" font-size="12.5" font-weight="500" fill="#cbd5e1">--input-cmd.</text><circle cx="21" cy="292" r="2.6" fill="#ec4899"/><text x="34" y="296" font-family="sans-serif" font-size="12.5" font-weight="500" fill="#cbd5e1">-w</text><circle cx="21" cy="313" r="2.6" fill="#ec4899"/><text x="34" y="317" font-family="sans-serif" font-size="12.5" font-weight="500" fill="#cbd5e1">-input-num</text><circle cx="21" cy="334" r="2.6" fill="#ec4899"/><text x="34" y="338" font-family="sans-serif" font-size="12.5" font-weight="500" fill="#cbd5e1">wordlist:KEYWORD&apos;</text><circle cx="21" cy="355" r="2.6" fill="#ec4899"/><text x="34" y="359" font-family="sans-serif" font-size="12.5" font-weight="500" fill="#cbd5e1">(default: 100)</text><circle cx="21" cy="376" r="2.6" fill="#ec4899"/><text x="34" y="380" font-family="sans-serif" font-size="12.5" font-weight="500" fill="#cbd5e1">-debug-log</text><circle cx="21" cy="397" r="2.6" fill="#ec4899"/><text x="34" y="401" font-family="sans-serif" font-size="12.5" font-weight="500" fill="#cbd5e1">Write all of the internal logging to the specified file.</text><circle cx="21" cy="418" r="2.6" fill="#ec4899"/><text x="34" y="422" font-family="sans-serif" font-size="12.5" font-weight="500" fill="#cbd5e1">Output file format. Available formats: json, ejson, html, md,</text><text x="34" y="439" font-family="sans-serif" font-size="12.5" font-weight="500" fill="#cbd5e1">csv, ecsv (or, &apos;all&apos; for all</text><circle cx="21" cy="456" r="2.6" fill="#ec4899"/><text x="34" y="460" font-family="sans-serif" font-size="12.5" font-weight="500" fill="#cbd5e1">-of</text><circle cx="21" cy="477" r="2.6" fill="#ec4899"/><text x="34" y="481" font-family="sans-serif" font-size="12.5" font-weight="500" fill="#cbd5e1">formats) (default: json)</text>
    </g>
    </g><g transform="translate(0, 971)">
    <g class="cat-card">
      <rect x="0" y="0" width="480" height="217" rx="10"
            fill="none" stroke="#3b82f6" stroke-width="1.6" stroke-dasharray="4,3"/>
      <rect x="14" y="-16" width="155.0" height="32" rx="7" fill="#3b82f6"/>
      <text x="91.5" y="5" text-anchor="middle"
            font-family="'Fira Code', monospace" font-size="12.5" font-weight="800" fill="#04060d">OUTPUT OPTIONS</text>
      <circle cx="21" cy="52" r="2.6" fill="#3b82f6"/><text x="34" y="56" font-family="sans-serif" font-size="12.5" font-weight="500" fill="#cbd5e1">-o</text><circle cx="21" cy="73" r="2.6" fill="#3b82f6"/><text x="34" y="77" font-family="sans-serif" font-size="12.5" font-weight="500" fill="#cbd5e1">Write output to file</text><circle cx="21" cy="94" r="2.6" fill="#3b82f6"/><text x="34" y="98" font-family="sans-serif" font-size="12.5" font-weight="500" fill="#cbd5e1">Don&apos;t create the output file if we don&apos;t have results</text><text x="34" y="115" font-family="sans-serif" font-size="12.5" font-weight="500" fill="#cbd5e1">(default: false)</text><circle cx="21" cy="132" r="2.6" fill="#3b82f6"/><text x="34" y="136" font-family="sans-serif" font-size="12.5" font-weight="500" fill="#cbd5e1">-or</text><circle cx="21" cy="153" r="2.6" fill="#3b82f6"/><text x="34" y="157" font-family="sans-serif" font-size="12.5" font-weight="500" fill="#cbd5e1">-od</text><circle cx="21" cy="174" r="2.6" fill="#3b82f6"/><text x="34" y="178" font-family="sans-serif" font-size="12.5" font-weight="500" fill="#cbd5e1">Directory path to store matched results to.</text>
    </g>
    </g>
  </g>

  <g transform="translate(828.0, 1706)">
    <rect x="-440" y="-38" width="880" height="76" rx="14" fill="#0b0e1a" stroke="url(#brand-grad)" stroke-width="2"/>
    <text x="0" y="-12" text-anchor="middle" font-size="16" font-weight="800" fill="#ffffff" letter-spacing="3px">
      <tspan fill="#ff0055">RED</tspan><tspan fill="#ffffff">TEAM</tspan><tspan fill="#00f0ff">APT</tspan>
      <tspan fill="#94a3b8" font-size="11"> • </tspan>
      <tspan fill="#a1a1aa" font-size="10.5">OFFICIAL OFFENSIVE SECURITY &amp; ADVERSARY SIMULATION ROADMAP</tspan>
    </text>
    <g transform="translate(-315, 6)">
      <rect width="190" height="26" rx="6" fill="#18181b" stroke="#ff0055" stroke-width="1.2"/>
      <text x="95" y="13" text-anchor="middle" dominant-baseline="middle" font-family="'Fira Code', monospace" font-size="10.5" font-weight="600" fill="#f43f5e">RedTeamAPT.ir</text>

      <rect x="220" width="190" height="26" rx="6" fill="#18181b" stroke="#00f0ff" stroke-width="1.2"/>
      <text x="315" y="13" text-anchor="middle" dominant-baseline="middle" font-family="'Fira Code', monospace" font-size="10.5" font-weight="600" fill="#38bdf8">TELEGRAM : @RedTeamAcademy</text>

      <rect x="440" width="190" height="26" rx="6" fill="#18181b" stroke="#a855f7" stroke-width="1.2"/>
      <text x="535" y="13" text-anchor="middle" dominant-baseline="middle" font-family="'Fira Code', monospace" font-size="10.5" font-weight="600" fill="#c084fc">GITHUB : RedTeamAPT</text>
    </g>
  </g>
</svg>