<?xml version="1.0" encoding="UTF-8"?>
<svg xmlns="http://www.w3.org/2000/svg" viewBox="0 0 2154 1059" width="100%" height="100%">
  <defs>
    <linearGradient id="canvas-bg" x1="0%" y1="0%" x2="100%" y2="100%">
      <stop offset="0%" stop-color="#04060d"/>
      <stop offset="50%" stop-color="#080c1d"/>
      <stop offset="100%" stop-color="#020306"/>
    </linearGradient>
    <linearGradient id="brand-grad" x1="0%" y1="0%" x2="100%" y2="0%">
      <stop offset="0%" stop-color="#ff0055"/>
      <stop offset="50%" stop-color="#7928ca"/>
      <stop offset="100%" stop-color="#00f0ff"/>
    </linearGradient>
    <style>
      @import url('https://fonts.googleapis.com/css2?family=Fira+Code:wght@400;500;600;700&amp;family=Inter:wght@400;600;700;800&amp;display=swap');
      text { font-family: 'Inter', -apple-system, sans-serif; }
      .code-font { font-family: 'Fira Code', monospace; }
    </style>
  </defs>
  <rect width="2154" height="1059" fill="url(#canvas-bg)"/>
  <g opacity="0.03" stroke="#ffffff" stroke-width="1">
    <pattern id="grid" width="40" height="40" patternUnits="userSpaceOnUse">
      <path d="M 40 0 L 0 0 0 40" fill="none"/>
    </pattern>
    <rect width="2154" height="1059" fill="url(#grid)"/>
  </g>
  <g transform="rotate(-25 1077.0 529.5)" opacity="0.035" pointer-events="none">
    <text x="1077.0" y="264.75" text-anchor="middle" font-family="monospace" font-weight="900" font-size="110" fill="#ffffff" letter-spacing="16px">REDTEAMAPT.IR</text>
    <text x="1077.0" y="529.5" text-anchor="middle" font-family="monospace" font-weight="900" font-size="110" fill="#ffffff" letter-spacing="16px">REDTEAMAPT.IR</text>
    <text x="1077.0" y="794.25" text-anchor="middle" font-family="monospace" font-weight="900" font-size="110" fill="#ffffff" letter-spacing="16px">REDTEAMAPT.IR</text>
  </g>

  <g transform="translate(1077.0, 75)">
    <rect x="-450.0" y="-46.0" width="900" height="92" rx="18" fill="#0c1224" stroke="url(#brand-grad)" stroke-width="2.5"/>
    <text x="0" y="2" text-anchor="middle" font-family="'Fira Code', monospace" font-size="30" font-weight="800" fill="#ffffff">
      <tspan fill="#ff0055">RED</tspan><tspan fill="#ffffff">TEAM</tspan><tspan fill="#00f0ff">APT</tspan>
      <tspan fill="#94a3b8" font-size="22"> | </tspan>
      <tspan fill="#38bdf8">LINUX PRIVILEGE ESCALATION</tspan>
    </text>
    <text x="0" y="26" text-anchor="middle" font-family="'Inter', sans-serif" font-size="12" font-weight="600" fill="#94a3b8" letter-spacing="3px">ADVANCED OFFENSIVE CYBERSECURITY &amp; RED TEAM ROADMAP</text>
  </g>

  <g transform="translate(90, 170)">
    <g transform="translate(0, 0)">
    <g class="cat-card">
      <rect x="0" y="0" width="480" height="74" rx="10"
            fill="none" stroke="#00f0ff" stroke-width="1.6" stroke-dasharray="4,3"/>
      <rect x="14" y="-16" width="140" height="32" rx="7" fill="#00f0ff"/>
      <text x="84.0" y="5" text-anchor="middle"
            font-family="'Fira Code', monospace" font-size="12.5" font-weight="800" fill="#04060d">Recon</text>
      
    </g>
    </g><g transform="translate(498, 0)">
    <g class="cat-card">
      <rect x="0" y="0" width="480" height="326" rx="10"
            fill="none" stroke="#f59e0b" stroke-width="1.6" stroke-dasharray="4,3"/>
      <rect x="14" y="-16" width="140" height="32" rx="7" fill="#f59e0b"/>
      <text x="84.0" y="5" text-anchor="middle"
            font-family="'Fira Code', monospace" font-size="12.5" font-weight="800" fill="#04060d">Hardening</text>
      <circle cx="21" cy="52" r="2.6" fill="#f59e0b"/><text x="34" y="56" font-family="sans-serif" font-size="12.5" font-weight="500" fill="#cbd5e1">find / -writable</text><circle cx="21" cy="73" r="2.6" fill="#f59e0b"/><text x="34" y="77" font-family="sans-serif" font-size="12.5" font-weight="500" fill="#cbd5e1">id</text><circle cx="21" cy="94" r="2.6" fill="#f59e0b"/><text x="34" y="98" font-family="sans-serif" font-size="12.5" font-weight="500" fill="#cbd5e1">Audit Capabilities</text><circle cx="21" cy="115" r="2.6" fill="#f59e0b"/><text x="34" y="119" font-family="sans-serif" font-size="12.5" font-weight="500" fill="#cbd5e1">Patch Kernel</text><circle cx="21" cy="136" r="2.6" fill="#f59e0b"/><text x="34" y="140" font-family="sans-serif" font-size="12.5" font-weight="500" fill="#cbd5e1">find / -perm -4000</text><circle cx="21" cy="157" r="2.6" fill="#f59e0b"/><text x="34" y="161" font-family="sans-serif" font-size="12.5" font-weight="500" fill="#cbd5e1">whoami</text><circle cx="21" cy="178" r="2.6" fill="#f59e0b"/><text x="34" y="182" font-family="sans-serif" font-size="12.5" font-weight="500" fill="#cbd5e1">Remove SUID</text><circle cx="21" cy="199" r="2.6" fill="#f59e0b"/><text x="34" y="203" font-family="sans-serif" font-size="12.5" font-weight="500" fill="#cbd5e1">Restrict Sudo</text><circle cx="21" cy="220" r="2.6" fill="#f59e0b"/><text x="34" y="224" font-family="sans-serif" font-size="12.5" font-weight="500" fill="#cbd5e1">ss -tulpn</text><circle cx="21" cy="241" r="2.6" fill="#f59e0b"/><text x="34" y="245" font-family="sans-serif" font-size="12.5" font-weight="500" fill="#cbd5e1">uname -a</text><circle cx="21" cy="262" r="2.6" fill="#f59e0b"/><text x="34" y="266" font-family="sans-serif" font-size="12.5" font-weight="500" fill="#cbd5e1">ip a</text><circle cx="21" cy="283" r="2.6" fill="#f59e0b"/><text x="34" y="287" font-family="sans-serif" font-size="12.5" font-weight="500" fill="#cbd5e1">hostname</text>
    </g>
    </g><g transform="translate(996, 0)">
    <g class="cat-card">
      <rect x="0" y="0" width="480" height="263" rx="10"
            fill="none" stroke="#10b981" stroke-width="1.6" stroke-dasharray="4,3"/>
      <rect x="14" y="-16" width="140" height="32" rx="7" fill="#10b981"/>
      <text x="84.0" y="5" text-anchor="middle"
            font-family="'Fira Code', monospace" font-size="12.5" font-weight="800" fill="#04060d">LOLBins</text>
      <circle cx="21" cy="52" r="2.6" fill="#10b981"/><text x="34" y="56" font-family="sans-serif" font-size="12.5" font-weight="500" fill="#cbd5e1">ps aux</text><circle cx="21" cy="73" r="2.6" fill="#10b981"/><text x="34" y="77" font-family="sans-serif" font-size="12.5" font-weight="500" fill="#cbd5e1">sudo -l</text><circle cx="21" cy="94" r="2.6" fill="#10b981"/><text x="34" y="98" font-family="sans-serif" font-size="12.5" font-weight="500" fill="#cbd5e1">vim</text><circle cx="21" cy="115" r="2.6" fill="#10b981"/><text x="34" y="119" font-family="sans-serif" font-size="12.5" font-weight="500" fill="#cbd5e1">bash</text><circle cx="21" cy="136" r="2.6" fill="#10b981"/><text x="34" y="140" font-family="sans-serif" font-size="12.5" font-weight="500" fill="#cbd5e1">env</text><circle cx="21" cy="157" r="2.6" fill="#10b981"/><text x="34" y="161" font-family="sans-serif" font-size="12.5" font-weight="500" fill="#cbd5e1">tar</text><circle cx="21" cy="178" r="2.6" fill="#10b981"/><text x="34" y="182" font-family="sans-serif" font-size="12.5" font-weight="500" fill="#cbd5e1">find</text><circle cx="21" cy="199" r="2.6" fill="#10b981"/><text x="34" y="203" font-family="sans-serif" font-size="12.5" font-weight="500" fill="#cbd5e1">python</text><circle cx="21" cy="220" r="2.6" fill="#10b981"/><text x="34" y="224" font-family="sans-serif" font-size="12.5" font-weight="500" fill="#cbd5e1">awk</text>
    </g>
    </g><g transform="translate(1494, 0)">
    <g class="cat-card">
      <rect x="0" y="0" width="480" height="305" rx="10"
            fill="none" stroke="#ef4444" stroke-width="1.6" stroke-dasharray="4,3"/>
      <rect x="14" y="-16" width="140" height="32" rx="7" fill="#ef4444"/>
      <text x="84.0" y="5" text-anchor="middle"
            font-family="'Fira Code', monospace" font-size="12.5" font-weight="800" fill="#04060d">Kernel</text>
      <circle cx="21" cy="52" r="2.6" fill="#ef4444"/><text x="34" y="56" font-family="sans-serif" font-size="12.5" font-weight="500" fill="#cbd5e1">perl</text><circle cx="21" cy="73" r="2.6" fill="#ef4444"/><text x="34" y="77" font-family="sans-serif" font-size="12.5" font-weight="500" fill="#cbd5e1">Linux Exploit Suggester</text><circle cx="21" cy="94" r="2.6" fill="#ef4444"/><text x="34" y="98" font-family="sans-serif" font-size="12.5" font-weight="500" fill="#cbd5e1">Kernel Exploits</text><circle cx="21" cy="115" r="2.6" fill="#ef4444"/><text x="34" y="119" font-family="sans-serif" font-size="12.5" font-weight="500" fill="#cbd5e1">OverlayFS</text><circle cx="21" cy="136" r="2.6" fill="#ef4444"/><text x="34" y="140" font-family="sans-serif" font-size="12.5" font-weight="500" fill="#cbd5e1">Dirty COW</text><circle cx="21" cy="157" r="2.6" fill="#ef4444"/><text x="34" y="161" font-family="sans-serif" font-size="12.5" font-weight="500" fill="#cbd5e1">Persistence</text><circle cx="21" cy="178" r="2.6" fill="#ef4444"/><text x="34" y="182" font-family="sans-serif" font-size="12.5" font-weight="500" fill="#cbd5e1">Dirty Pipe</text><circle cx="21" cy="199" r="2.6" fill="#ef4444"/><text x="34" y="203" font-family="sans-serif" font-size="12.5" font-weight="500" fill="#cbd5e1">rc.local</text><circle cx="21" cy="220" r="2.6" fill="#ef4444"/><text x="34" y="224" font-family="sans-serif" font-size="12.5" font-weight="500" fill="#cbd5e1">Cron</text><circle cx="21" cy="241" r="2.6" fill="#ef4444"/><text x="34" y="245" font-family="sans-serif" font-size="12.5" font-weight="500" fill="#cbd5e1">Systemd</text><circle cx="21" cy="262" r="2.6" fill="#ef4444"/><text x="34" y="266" font-family="sans-serif" font-size="12.5" font-weight="500" fill="#cbd5e1">SSH Keys</text>
    </g>
    </g><g transform="translate(0, 92)">
    <g class="cat-card">
      <rect x="0" y="0" width="480" height="116" rx="10"
            fill="none" stroke="#8b5cf6" stroke-width="1.6" stroke-dasharray="4,3"/>
      <rect x="14" y="-16" width="140" height="32" rx="7" fill="#8b5cf6"/>
      <text x="84.0" y="5" text-anchor="middle"
            font-family="'Fira Code', monospace" font-size="12.5" font-weight="800" fill="#04060d">Sudo</text>
      <circle cx="21" cy="52" r="2.6" fill="#8b5cf6"/><text x="34" y="56" font-family="sans-serif" font-size="12.5" font-weight="500" fill="#cbd5e1">env_keep</text><circle cx="21" cy="73" r="2.6" fill="#8b5cf6"/><text x="34" y="77" font-family="sans-serif" font-size="12.5" font-weight="500" fill="#cbd5e1">NOPASSWD</text>
    </g>
    </g><g transform="translate(0, 226)">
    <g class="cat-card">
      <rect x="0" y="0" width="480" height="200" rx="10"
            fill="none" stroke="#ec4899" stroke-width="1.6" stroke-dasharray="4,3"/>
      <rect x="14" y="-16" width="140" height="32" rx="7" fill="#ec4899"/>
      <text x="84.0" y="5" text-anchor="middle"
            font-family="'Fira Code', monospace" font-size="12.5" font-weight="800" fill="#04060d">Tools</text>
      <circle cx="21" cy="52" r="2.6" fill="#ec4899"/><text x="34" y="56" font-family="sans-serif" font-size="12.5" font-weight="500" fill="#cbd5e1">sudo version</text><circle cx="21" cy="73" r="2.6" fill="#ec4899"/><text x="34" y="77" font-family="sans-serif" font-size="12.5" font-weight="500" fill="#cbd5e1">GTFOBins</text><circle cx="21" cy="94" r="2.6" fill="#ec4899"/><text x="34" y="98" font-family="sans-serif" font-size="12.5" font-weight="500" fill="#cbd5e1">LSE</text><circle cx="21" cy="115" r="2.6" fill="#ec4899"/><text x="34" y="119" font-family="sans-serif" font-size="12.5" font-weight="500" fill="#cbd5e1">LinPEAS</text><circle cx="21" cy="136" r="2.6" fill="#ec4899"/><text x="34" y="140" font-family="sans-serif" font-size="12.5" font-weight="500" fill="#cbd5e1">GTFOBins</text><circle cx="21" cy="157" r="2.6" fill="#ec4899"/><text x="34" y="161" font-family="sans-serif" font-size="12.5" font-weight="500" fill="#cbd5e1">LinEnum</text>
    </g>
    </g><g transform="translate(996, 281)">
    <g class="cat-card">
      <rect x="0" y="0" width="480" height="179" rx="10"
            fill="none" stroke="#3b82f6" stroke-width="1.6" stroke-dasharray="4,3"/>
      <rect x="14" y="-16" width="140" height="32" rx="7" fill="#3b82f6"/>
      <text x="84.0" y="5" text-anchor="middle"
            font-family="'Fira Code', monospace" font-size="12.5" font-weight="800" fill="#04060d">SUID &amp; SGID</text>
      <circle cx="21" cy="52" r="2.6" fill="#3b82f6"/><text x="34" y="56" font-family="sans-serif" font-size="12.5" font-weight="500" fill="#cbd5e1">pspy</text><circle cx="21" cy="73" r="2.6" fill="#3b82f6"/><text x="34" y="77" font-family="sans-serif" font-size="12.5" font-weight="500" fill="#cbd5e1">Linux Exploit Suggester</text><circle cx="21" cy="94" r="2.6" fill="#3b82f6"/><text x="34" y="98" font-family="sans-serif" font-size="12.5" font-weight="500" fill="#cbd5e1">Custom Binaries</text><circle cx="21" cy="115" r="2.6" fill="#3b82f6"/><text x="34" y="119" font-family="sans-serif" font-size="12.5" font-weight="500" fill="#cbd5e1">Find SUID</text><circle cx="21" cy="136" r="2.6" fill="#3b82f6"/><text x="34" y="140" font-family="sans-serif" font-size="12.5" font-weight="500" fill="#cbd5e1">GTFOBins</text>
    </g>
    </g><g transform="translate(1494, 323)">
    <g class="cat-card">
      <rect x="0" y="0" width="480" height="116" rx="10"
            fill="none" stroke="#00f0ff" stroke-width="1.6" stroke-dasharray="4,3"/>
      <rect x="14" y="-16" width="140" height="32" rx="7" fill="#00f0ff"/>
      <text x="84.0" y="5" text-anchor="middle"
            font-family="'Fira Code', monospace" font-size="12.5" font-weight="800" fill="#04060d">Files</text>
      <circle cx="21" cy="52" r="2.6" fill="#00f0ff"/><text x="34" y="56" font-family="sans-serif" font-size="12.5" font-weight="500" fill="#cbd5e1">Logs</text><circle cx="21" cy="73" r="2.6" fill="#00f0ff"/><text x="34" y="77" font-family="sans-serif" font-size="12.5" font-weight="500" fill="#cbd5e1">/etc/passwd</text>
    </g>
    </g><g transform="translate(498, 344)">
    <g class="cat-card">
      <rect x="0" y="0" width="480" height="200" rx="10"
            fill="none" stroke="#f59e0b" stroke-width="1.6" stroke-dasharray="4,3"/>
      <rect x="14" y="-16" width="140" height="32" rx="7" fill="#f59e0b"/>
      <text x="84.0" y="5" text-anchor="middle"
            font-family="'Fira Code', monospace" font-size="12.5" font-weight="800" fill="#04060d">Capabilities</text>
      <circle cx="21" cy="52" r="2.6" fill="#f59e0b"/><text x="34" y="56" font-family="sans-serif" font-size="12.5" font-weight="500" fill="#cbd5e1">Backups</text><circle cx="21" cy="73" r="2.6" fill="#f59e0b"/><text x="34" y="77" font-family="sans-serif" font-size="12.5" font-weight="500" fill="#cbd5e1">/etc/shadow</text><circle cx="21" cy="94" r="2.6" fill="#f59e0b"/><text x="34" y="98" font-family="sans-serif" font-size="12.5" font-weight="500" fill="#cbd5e1">cap_sys_admin</text><circle cx="21" cy="115" r="2.6" fill="#f59e0b"/><text x="34" y="119" font-family="sans-serif" font-size="12.5" font-weight="500" fill="#cbd5e1">getcap -r /</text><circle cx="21" cy="136" r="2.6" fill="#f59e0b"/><text x="34" y="140" font-family="sans-serif" font-size="12.5" font-weight="500" fill="#cbd5e1">cap_dac_override</text><circle cx="21" cy="157" r="2.6" fill="#f59e0b"/><text x="34" y="161" font-family="sans-serif" font-size="12.5" font-weight="500" fill="#cbd5e1">cap_setuid</text>
    </g>
    </g><g transform="translate(0, 444)">
    <g class="cat-card">
      <rect x="0" y="0" width="480" height="116" rx="10"
            fill="none" stroke="#10b981" stroke-width="1.6" stroke-dasharray="4,3"/>
      <rect x="14" y="-16" width="140" height="32" rx="7" fill="#10b981"/>
      <text x="84.0" y="5" text-anchor="middle"
            font-family="'Fira Code', monospace" font-size="12.5" font-weight="800" fill="#04060d">Containers</text>
      <circle cx="21" cy="52" r="2.6" fill="#10b981"/><text x="34" y="56" font-family="sans-serif" font-size="12.5" font-weight="500" fill="#cbd5e1">Kubernetes</text><circle cx="21" cy="73" r="2.6" fill="#10b981"/><text x="34" y="77" font-family="sans-serif" font-size="12.5" font-weight="500" fill="#cbd5e1">Docker Group</text>
    </g>
    </g><g transform="translate(1494, 457)">
    <g class="cat-card">
      <rect x="0" y="0" width="480" height="158" rx="10"
            fill="none" stroke="#ef4444" stroke-width="1.6" stroke-dasharray="4,3"/>
      <rect x="14" y="-16" width="140" height="32" rx="7" fill="#ef4444"/>
      <text x="84.0" y="5" text-anchor="middle"
            font-family="'Fira Code', monospace" font-size="12.5" font-weight="800" fill="#04060d">Cron Jobs</text>
      <circle cx="21" cy="52" r="2.6" fill="#ef4444"/><text x="34" y="56" font-family="sans-serif" font-size="12.5" font-weight="500" fill="#cbd5e1">LXD</text><circle cx="21" cy="73" r="2.6" fill="#ef4444"/><text x="34" y="77" font-family="sans-serif" font-size="12.5" font-weight="500" fill="#cbd5e1">Wildcard Injection</text><circle cx="21" cy="94" r="2.6" fill="#ef4444"/><text x="34" y="98" font-family="sans-serif" font-size="12.5" font-weight="500" fill="#cbd5e1">Writable Scripts</text><circle cx="21" cy="115" r="2.6" fill="#ef4444"/><text x="34" y="119" font-family="sans-serif" font-size="12.5" font-weight="500" fill="#cbd5e1">PATH Hijacking</text>
    </g>
    </g><g transform="translate(996, 478)">
    <g class="cat-card">
      <rect x="0" y="0" width="480" height="116" rx="10"
            fill="none" stroke="#8b5cf6" stroke-width="1.6" stroke-dasharray="4,3"/>
      <rect x="14" y="-16" width="140" height="32" rx="7" fill="#8b5cf6"/>
      <text x="84.0" y="5" text-anchor="middle"
            font-family="'Fira Code', monospace" font-size="12.5" font-weight="800" fill="#04060d">Credentials</text>
      <circle cx="21" cy="52" r="2.6" fill="#8b5cf6"/><text x="34" y="56" font-family="sans-serif" font-size="12.5" font-weight="500" fill="#cbd5e1">Passwords</text><circle cx="21" cy="73" r="2.6" fill="#8b5cf6"/><text x="34" y="77" font-family="sans-serif" font-size="12.5" font-weight="500" fill="#cbd5e1">SSH Keys</text>
    </g>
    </g><g transform="translate(498, 562)">
    <g class="cat-card">
      <rect x="0" y="0" width="480" height="179" rx="10"
            fill="none" stroke="#ec4899" stroke-width="1.6" stroke-dasharray="4,3"/>
      <rect x="14" y="-16" width="140" height="32" rx="7" fill="#ec4899"/>
      <text x="84.0" y="5" text-anchor="middle"
            font-family="'Fira Code', monospace" font-size="12.5" font-weight="800" fill="#04060d">Services</text>
      <circle cx="21" cy="52" r="2.6" fill="#ec4899"/><text x="34" y="56" font-family="sans-serif" font-size="12.5" font-weight="500" fill="#cbd5e1">Config Files</text><circle cx="21" cy="73" r="2.6" fill="#ec4899"/><text x="34" y="77" font-family="sans-serif" font-size="12.5" font-weight="500" fill="#cbd5e1">.bash_history</text><circle cx="21" cy="94" r="2.6" fill="#ec4899"/><text x="34" y="98" font-family="sans-serif" font-size="12.5" font-weight="500" fill="#cbd5e1">Systemd Units</text><circle cx="21" cy="115" r="2.6" fill="#ec4899"/><text x="34" y="119" font-family="sans-serif" font-size="12.5" font-weight="500" fill="#cbd5e1">Writable Service Files</text><circle cx="21" cy="136" r="2.6" fill="#ec4899"/><text x="34" y="140" font-family="sans-serif" font-size="12.5" font-weight="500" fill="#cbd5e1">NFS</text>
    </g>
    </g><g transform="translate(0, 578)">
    <g class="cat-card">
      <rect x="0" y="0" width="480" height="137" rx="10"
            fill="none" stroke="#3b82f6" stroke-width="1.6" stroke-dasharray="4,3"/>
      <rect x="14" y="-16" width="155.0" height="32" rx="7" fill="#3b82f6"/>
      <text x="91.5" y="5" text-anchor="middle"
            font-family="'Fira Code', monospace" font-size="12.5" font-weight="800" fill="#04060d">PATH Hijacking</text>
      <circle cx="21" cy="52" r="2.6" fill="#3b82f6"/><text x="34" y="56" font-family="sans-serif" font-size="12.5" font-weight="500" fill="#cbd5e1">no_root_squash</text><circle cx="21" cy="73" r="2.6" fill="#3b82f6"/><text x="34" y="77" font-family="sans-serif" font-size="12.5" font-weight="500" fill="#cbd5e1">Relative Paths</text><circle cx="21" cy="94" r="2.6" fill="#3b82f6"/><text x="34" y="98" font-family="sans-serif" font-size="12.5" font-weight="500" fill="#cbd5e1">PATH Variable</text>
    </g>
    </g>
  </g>

  <g transform="translate(1077.0, 994)">
    <rect x="-440" y="-38" width="880" height="76" rx="14" fill="#0b0e1a" stroke="url(#brand-grad)" stroke-width="2"/>
    <text x="0" y="-12" text-anchor="middle" font-size="16" font-weight="800" fill="#ffffff" letter-spacing="3px">
      <tspan fill="#ff0055">RED</tspan><tspan fill="#ffffff">TEAM</tspan><tspan fill="#00f0ff">APT</tspan>
      <tspan fill="#94a3b8" font-size="11"> • </tspan>
      <tspan fill="#a1a1aa" font-size="10.5">OFFICIAL OFFENSIVE SECURITY &amp; ADVERSARY SIMULATION ROADMAP</tspan>
    </text>
    <g transform="translate(-315, 6)">
      <rect width="190" height="26" rx="6" fill="#18181b" stroke="#ff0055" stroke-width="1.2"/>
      <text x="95" y="13" text-anchor="middle" dominant-baseline="middle" font-family="'Fira Code', monospace" font-size="10.5" font-weight="600" fill="#f43f5e">RedTeamAPT.ir</text>

      <rect x="220" width="190" height="26" rx="6" fill="#18181b" stroke="#00f0ff" stroke-width="1.2"/>
      <text x="315" y="13" text-anchor="middle" dominant-baseline="middle" font-family="'Fira Code', monospace" font-size="10.5" font-weight="600" fill="#38bdf8">TELEGRAM : @RedTeamAcademy</text>

      <rect x="440" width="190" height="26" rx="6" fill="#18181b" stroke="#a855f7" stroke-width="1.2"/>
      <text x="535" y="13" text-anchor="middle" dominant-baseline="middle" font-family="'Fira Code', monospace" font-size="10.5" font-weight="600" fill="#c084fc">GITHUB : RedTeamAPT</text>
    </g>
  </g>
</svg>