<?xml version="1.0" encoding="UTF-8"?>
<svg xmlns="http://www.w3.org/2000/svg" viewBox="0 0 1158 1610" width="100%" height="100%">
  <defs>
    <linearGradient id="canvas-bg" x1="0%" y1="0%" x2="100%" y2="100%">
      <stop offset="0%" stop-color="#04060d"/>
      <stop offset="50%" stop-color="#080c1d"/>
      <stop offset="100%" stop-color="#020306"/>
    </linearGradient>
    <linearGradient id="brand-grad" x1="0%" y1="0%" x2="100%" y2="0%">
      <stop offset="0%" stop-color="#ff0055"/>
      <stop offset="50%" stop-color="#7928ca"/>
      <stop offset="100%" stop-color="#00f0ff"/>
    </linearGradient>
    <style>
      @import url('https://fonts.googleapis.com/css2?family=Fira+Code:wght@400;500;600;700&amp;family=Inter:wght@400;600;700;800&amp;display=swap');
      text { font-family: 'Inter', -apple-system, sans-serif; }
      .code-font { font-family: 'Fira Code', monospace; }
    </style>
  </defs>
  <rect width="1158" height="1610" fill="url(#canvas-bg)"/>
  <g opacity="0.03" stroke="#ffffff" stroke-width="1">
    <pattern id="grid" width="40" height="40" patternUnits="userSpaceOnUse">
      <path d="M 40 0 L 0 0 0 40" fill="none"/>
    </pattern>
    <rect width="1158" height="1610" fill="url(#grid)"/>
  </g>
  <g transform="rotate(-25 579.0 805.0)" opacity="0.035" pointer-events="none">
    <text x="579.0" y="402.5" text-anchor="middle" font-family="monospace" font-weight="900" font-size="110" fill="#ffffff" letter-spacing="16px">REDTEAMAPT.IR</text>
    <text x="579.0" y="805.0" text-anchor="middle" font-family="monospace" font-weight="900" font-size="110" fill="#ffffff" letter-spacing="16px">REDTEAMAPT.IR</text>
    <text x="579.0" y="1207.5" text-anchor="middle" font-family="monospace" font-weight="900" font-size="110" fill="#ffffff" letter-spacing="16px">REDTEAMAPT.IR</text>
  </g>

  <g transform="translate(579.0, 75)">
    <rect x="-490.0" y="-46.0" width="980" height="92" rx="18" fill="#0c1224" stroke="url(#brand-grad)" stroke-width="2.5"/>
    <text x="0" y="2" text-anchor="middle" font-family="'Fira Code', monospace" font-size="30" font-weight="800" fill="#ffffff">
      <tspan fill="#ff0055">RED</tspan><tspan fill="#ffffff">TEAM</tspan><tspan fill="#00f0ff">APT</tspan>
      <tspan fill="#94a3b8" font-size="22"> | </tspan>
      <tspan fill="#38bdf8">OFFENSIVE LINUX SECURITY TOOLS</tspan>
    </text>
    <text x="0" y="26" text-anchor="middle" font-family="'Inter', sans-serif" font-size="12" font-weight="600" fill="#94a3b8" letter-spacing="3px">ADVANCED OFFENSIVE CYBERSECURITY &amp; RED TEAM ROADMAP</text>
  </g>

  <g transform="translate(90, 170)">
    <g transform="translate(0, 0)">
    <g class="cat-card">
      <rect x="0" y="0" width="480" height="1292" rx="10"
            fill="none" stroke="#00f0ff" stroke-width="1.6" stroke-dasharray="4,3"/>
      <rect x="14" y="-16" width="140" height="32" rx="7" fill="#00f0ff"/>
      <text x="84.0" y="5" text-anchor="middle"
            font-family="'Fira Code', monospace" font-size="12.5" font-weight="800" fill="#04060d">XSSer</text>
      <circle cx="21" cy="52" r="2.6" fill="#00f0ff"/><text x="34" y="56" font-family="sans-serif" font-size="12.5" font-weight="500" fill="#cbd5e1">SearchSploit</text><circle cx="21" cy="73" r="2.6" fill="#00f0ff"/><text x="34" y="77" font-family="sans-serif" font-size="12.5" font-weight="500" fill="#cbd5e1">Pwntools</text><circle cx="21" cy="94" r="2.6" fill="#00f0ff"/><text x="34" y="98" font-family="sans-serif" font-size="12.5" font-weight="500" fill="#cbd5e1">Exploit-DB</text><circle cx="21" cy="115" r="2.6" fill="#00f0ff"/><text x="34" y="119" font-family="sans-serif" font-size="12.5" font-weight="500" fill="#cbd5e1">Commix</text><circle cx="21" cy="136" r="2.6" fill="#00f0ff"/><text x="34" y="140" font-family="sans-serif" font-size="12.5" font-weight="500" fill="#cbd5e1">Ropper</text><circle cx="21" cy="157" r="2.6" fill="#00f0ff"/><text x="34" y="161" font-family="sans-serif" font-size="12.5" font-weight="500" fill="#cbd5e1">ysoserial</text><circle cx="21" cy="178" r="2.6" fill="#00f0ff"/><text x="34" y="182" font-family="sans-serif" font-size="12.5" font-weight="500" fill="#cbd5e1">ShellNoob</text><circle cx="21" cy="199" r="2.6" fill="#00f0ff"/><text x="34" y="203" font-family="sans-serif" font-size="12.5" font-weight="500" fill="#cbd5e1">RouterSploit</text><circle cx="21" cy="220" r="2.6" fill="#00f0ff"/><text x="34" y="224" font-family="sans-serif" font-size="12.5" font-weight="500" fill="#cbd5e1">Pwncat</text><circle cx="21" cy="241" r="2.6" fill="#00f0ff"/><text x="34" y="245" font-family="sans-serif" font-size="12.5" font-weight="500" fill="#cbd5e1">BeEF</text><circle cx="21" cy="262" r="2.6" fill="#00f0ff"/><text x="34" y="266" font-family="sans-serif" font-size="12.5" font-weight="500" fill="#cbd5e1">BeRoot</text><circle cx="21" cy="283" r="2.6" fill="#00f0ff"/><text x="34" y="287" font-family="sans-serif" font-size="12.5" font-weight="500" fill="#cbd5e1">Armitage</text><circle cx="21" cy="304" r="2.6" fill="#00f0ff"/><text x="34" y="308" font-family="sans-serif" font-size="12.5" font-weight="500" fill="#cbd5e1">Meterpreter</text><circle cx="21" cy="325" r="2.6" fill="#00f0ff"/><text x="34" y="329" font-family="sans-serif" font-size="12.5" font-weight="500" fill="#cbd5e1">Wifi Pumpkin</text><circle cx="21" cy="346" r="2.6" fill="#00f0ff"/><text x="34" y="350" font-family="sans-serif" font-size="12.5" font-weight="500" fill="#cbd5e1">sqlmap</text><circle cx="21" cy="367" r="2.6" fill="#00f0ff"/><text x="34" y="371" font-family="sans-serif" font-size="12.5" font-weight="500" fill="#cbd5e1">Koadic</text><circle cx="21" cy="388" r="2.6" fill="#00f0ff"/><text x="34" y="392" font-family="sans-serif" font-size="12.5" font-weight="500" fill="#cbd5e1">airgeddon</text><circle cx="21" cy="409" r="2.6" fill="#00f0ff"/><text x="34" y="413" font-family="sans-serif" font-size="12.5" font-weight="500" fill="#cbd5e1">Lair-Framework</text><circle cx="21" cy="430" r="2.6" fill="#00f0ff"/><text x="34" y="434" font-family="sans-serif" font-size="12.5" font-weight="500" fill="#cbd5e1">jSQL Injection</text><circle cx="21" cy="451" r="2.6" fill="#00f0ff"/><text x="34" y="455" font-family="sans-serif" font-size="12.5" font-weight="500" fill="#cbd5e1">Dnscat2</text><circle cx="21" cy="472" r="2.6" fill="#00f0ff"/><text x="34" y="476" font-family="sans-serif" font-size="12.5" font-weight="500" fill="#cbd5e1">Aircrack-ng</text><circle cx="21" cy="493" r="2.6" fill="#00f0ff"/><text x="34" y="497" font-family="sans-serif" font-size="12.5" font-weight="500" fill="#cbd5e1">Skipfish</text><circle cx="21" cy="514" r="2.6" fill="#00f0ff"/><text x="34" y="518" font-family="sans-serif" font-size="12.5" font-weight="500" fill="#cbd5e1">MagicTree</text><circle cx="21" cy="535" r="2.6" fill="#00f0ff"/><text x="34" y="539" font-family="sans-serif" font-size="12.5" font-weight="500" fill="#cbd5e1">PTF</text><circle cx="21" cy="556" r="2.6" fill="#00f0ff"/><text x="34" y="560" font-family="sans-serif" font-size="12.5" font-weight="500" fill="#cbd5e1">Mimikatz</text><circle cx="21" cy="577" r="2.6" fill="#00f0ff"/><text x="34" y="581" font-family="sans-serif" font-size="12.5" font-weight="500" fill="#cbd5e1">Reaver</text><circle cx="21" cy="598" r="2.6" fill="#00f0ff"/><text x="34" y="602" font-family="sans-serif" font-size="12.5" font-weight="500" fill="#cbd5e1">Phishx</text><circle cx="21" cy="619" r="2.6" fill="#00f0ff"/><text x="34" y="623" font-family="sans-serif" font-size="12.5" font-weight="500" fill="#cbd5e1">WFuzz</text><circle cx="21" cy="640" r="2.6" fill="#00f0ff"/><text x="34" y="644" font-family="sans-serif" font-size="12.5" font-weight="500" fill="#cbd5e1">DefectDojo</text><circle cx="21" cy="661" r="2.6" fill="#00f0ff"/><text x="34" y="665" font-family="sans-serif" font-size="12.5" font-weight="500" fill="#cbd5e1">SQL Ninja</text><circle cx="21" cy="682" r="2.6" fill="#00f0ff"/><text x="34" y="686" font-family="sans-serif" font-size="12.5" font-weight="500" fill="#cbd5e1">Bloodhound</text><circle cx="21" cy="703" r="2.6" fill="#00f0ff"/><text x="34" y="707" font-family="sans-serif" font-size="12.5" font-weight="500" fill="#cbd5e1">Wifite</text><circle cx="21" cy="724" r="2.6" fill="#00f0ff"/><text x="34" y="728" font-family="sans-serif" font-size="12.5" font-weight="500" fill="#cbd5e1">King Phisher</text><circle cx="21" cy="745" r="2.6" fill="#00f0ff"/><text x="34" y="749" font-family="sans-serif" font-size="12.5" font-weight="500" fill="#cbd5e1">AFachni</text><circle cx="21" cy="766" r="2.6" fill="#00f0ff"/><text x="34" y="770" font-family="sans-serif" font-size="12.5" font-weight="500" fill="#cbd5e1">Serpico</text><circle cx="21" cy="787" r="2.6" fill="#00f0ff"/><text x="34" y="791" font-family="sans-serif" font-size="12.5" font-weight="500" fill="#cbd5e1">Exploit Pack</text><circle cx="21" cy="808" r="2.6" fill="#00f0ff"/><text x="34" y="812" font-family="sans-serif" font-size="12.5" font-weight="500" fill="#cbd5e1">Pupy</text><circle cx="21" cy="829" r="2.6" fill="#00f0ff"/><text x="34" y="833" font-family="sans-serif" font-size="12.5" font-weight="500" fill="#cbd5e1">PixieWPS</text><circle cx="21" cy="850" r="2.6" fill="#00f0ff"/><text x="34" y="854" font-family="sans-serif" font-size="12.5" font-weight="500" fill="#cbd5e1">Gophish</text><circle cx="21" cy="871" r="2.6" fill="#00f0ff"/><text x="34" y="875" font-family="sans-serif" font-size="12.5" font-weight="500" fill="#cbd5e1">OWASP ZAP</text><circle cx="21" cy="892" r="2.6" fill="#00f0ff"/><text x="34" y="896" font-family="sans-serif" font-size="12.5" font-weight="500" fill="#cbd5e1">Faraday</text><circle cx="21" cy="913" r="2.6" fill="#00f0ff"/><text x="34" y="917" font-family="sans-serif" font-size="12.5" font-weight="500" fill="#cbd5e1">Metasploit</text><circle cx="21" cy="934" r="2.6" fill="#00f0ff"/><text x="34" y="938" font-family="sans-serif" font-size="12.5" font-weight="500" fill="#cbd5e1">Empire</text><circle cx="21" cy="955" r="2.6" fill="#00f0ff"/><text x="34" y="959" font-family="sans-serif" font-size="12.5" font-weight="500" fill="#cbd5e1">Kismet</text><circle cx="21" cy="976" r="2.6" fill="#00f0ff"/><text x="34" y="980" font-family="sans-serif" font-size="12.5" font-weight="500" fill="#cbd5e1">SET</text><circle cx="21" cy="997" r="2.6" fill="#00f0ff"/><text x="34" y="1001" font-family="sans-serif" font-size="12.5" font-weight="500" fill="#cbd5e1">Burp Suite</text><circle cx="21" cy="1018" r="2.6" fill="#00f0ff"/><text x="34" y="1022" font-family="sans-serif" font-size="12.5" font-weight="500" fill="#cbd5e1">Dradis</text><circle cx="21" cy="1039" r="2.6" fill="#00f0ff"/><text x="34" y="1043" font-family="sans-serif" font-size="12.5" font-weight="500" fill="#cbd5e1">Exploitation</text><circle cx="21" cy="1060" r="2.6" fill="#00f0ff"/><text x="34" y="1064" font-family="sans-serif" font-size="12.5" font-weight="500" fill="#cbd5e1">Post-Exploitation</text><circle cx="21" cy="1081" r="2.6" fill="#00f0ff"/><text x="34" y="1085" font-family="sans-serif" font-size="12.5" font-weight="500" fill="#cbd5e1">Wireless Attacks</text><circle cx="21" cy="1102" r="2.6" fill="#00f0ff"/><text x="34" y="1106" font-family="sans-serif" font-size="12.5" font-weight="500" fill="#cbd5e1">Social Engineer &amp; Phishing</text><circle cx="21" cy="1123" r="2.6" fill="#00f0ff"/><text x="34" y="1127" font-family="sans-serif" font-size="12.5" font-weight="500" fill="#cbd5e1">WebApp Pentesting</text><circle cx="21" cy="1144" r="2.6" fill="#00f0ff"/><text x="34" y="1148" font-family="sans-serif" font-size="12.5" font-weight="500" fill="#cbd5e1">Reporting &amp; Documentation</text><circle cx="21" cy="1165" r="2.6" fill="#00f0ff"/><text x="34" y="1169" font-family="sans-serif" font-size="12.5" font-weight="500" fill="#cbd5e1">Reconnaissance</text><circle cx="21" cy="1186" r="2.6" fill="#00f0ff"/><text x="34" y="1190" font-family="sans-serif" font-size="12.5" font-weight="500" fill="#cbd5e1">Vulnerability Scanning</text><circle cx="21" cy="1207" r="2.6" fill="#00f0ff"/><text x="34" y="1211" font-family="sans-serif" font-size="12.5" font-weight="500" fill="#cbd5e1">Network-based Attacks</text><circle cx="21" cy="1228" r="2.6" fill="#00f0ff"/><text x="34" y="1232" font-family="sans-serif" font-size="12.5" font-weight="500" fill="#cbd5e1">Password &amp; Brute Force Attacks</text><circle cx="21" cy="1249" r="2.6" fill="#00f0ff"/><text x="34" y="1253" font-family="sans-serif" font-size="12.5" font-weight="500" fill="#cbd5e1">Mobile Security</text>
    </g>
    </g><g transform="translate(498, 0)">
    <g class="cat-card">
      <rect x="0" y="0" width="480" height="1166" rx="10"
            fill="none" stroke="#f59e0b" stroke-width="1.6" stroke-dasharray="4,3"/>
      <rect x="14" y="-16" width="197.5" height="32" rx="7" fill="#f59e0b"/>
      <text x="112.75" y="5" text-anchor="middle"
            font-family="'Fira Code', monospace" font-size="12.5" font-weight="800" fill="#04060d">Reverse Engineering</text>
      <circle cx="21" cy="52" r="2.6" fill="#f59e0b"/><text x="34" y="56" font-family="sans-serif" font-size="12.5" font-weight="500" fill="#cbd5e1">Recon-ng</text><circle cx="21" cy="73" r="2.6" fill="#f59e0b"/><text x="34" y="77" font-family="sans-serif" font-size="12.5" font-weight="500" fill="#cbd5e1">OpenVAS</text><circle cx="21" cy="94" r="2.6" fill="#f59e0b"/><text x="34" y="98" font-family="sans-serif" font-size="12.5" font-weight="500" fill="#cbd5e1">Wireshark</text><circle cx="21" cy="115" r="2.6" fill="#f59e0b"/><text x="34" y="119" font-family="sans-serif" font-size="12.5" font-weight="500" fill="#cbd5e1">John the Ripper</text><circle cx="21" cy="136" r="2.6" fill="#f59e0b"/><text x="34" y="140" font-family="sans-serif" font-size="12.5" font-weight="500" fill="#cbd5e1">Drozer</text><circle cx="21" cy="157" r="2.6" fill="#f59e0b"/><text x="34" y="161" font-family="sans-serif" font-size="12.5" font-weight="500" fill="#cbd5e1">Radare2</text><circle cx="21" cy="178" r="2.6" fill="#f59e0b"/><text x="34" y="182" font-family="sans-serif" font-size="12.5" font-weight="500" fill="#cbd5e1">theHarvester</text><circle cx="21" cy="199" r="2.6" fill="#f59e0b"/><text x="34" y="203" font-family="sans-serif" font-size="12.5" font-weight="500" fill="#cbd5e1">w3af</text><circle cx="21" cy="220" r="2.6" fill="#f59e0b"/><text x="34" y="224" font-family="sans-serif" font-size="12.5" font-weight="500" fill="#cbd5e1">Ettercap</text><circle cx="21" cy="241" r="2.6" fill="#f59e0b"/><text x="34" y="245" font-family="sans-serif" font-size="12.5" font-weight="500" fill="#cbd5e1">Hashcat</text><circle cx="21" cy="262" r="2.6" fill="#f59e0b"/><text x="34" y="266" font-family="sans-serif" font-size="12.5" font-weight="500" fill="#cbd5e1">Androguard</text><circle cx="21" cy="283" r="2.6" fill="#f59e0b"/><text x="34" y="287" font-family="sans-serif" font-size="12.5" font-weight="500" fill="#cbd5e1">Ghidra</text><circle cx="21" cy="304" r="2.6" fill="#f59e0b"/><text x="34" y="308" font-family="sans-serif" font-size="12.5" font-weight="500" fill="#cbd5e1">Nmap</text><circle cx="21" cy="325" r="2.6" fill="#f59e0b"/><text x="34" y="329" font-family="sans-serif" font-size="12.5" font-weight="500" fill="#cbd5e1">Nikto</text><circle cx="21" cy="346" r="2.6" fill="#f59e0b"/><text x="34" y="350" font-family="sans-serif" font-size="12.5" font-weight="500" fill="#cbd5e1">ArpSpoof</text><circle cx="21" cy="367" r="2.6" fill="#f59e0b"/><text x="34" y="371" font-family="sans-serif" font-size="12.5" font-weight="500" fill="#cbd5e1">Crunch</text><circle cx="21" cy="388" r="2.6" fill="#f59e0b"/><text x="34" y="392" font-family="sans-serif" font-size="12.5" font-weight="500" fill="#cbd5e1">Frida</text><circle cx="21" cy="409" r="2.6" fill="#f59e0b"/><text x="34" y="413" font-family="sans-serif" font-size="12.5" font-weight="500" fill="#cbd5e1">Angr</text><circle cx="21" cy="430" r="2.6" fill="#f59e0b"/><text x="34" y="434" font-family="sans-serif" font-size="12.5" font-weight="500" fill="#cbd5e1">Zenmap</text><circle cx="21" cy="451" r="2.6" fill="#f59e0b"/><text x="34" y="455" font-family="sans-serif" font-size="12.5" font-weight="500" fill="#cbd5e1">Vuls</text><circle cx="21" cy="472" r="2.6" fill="#f59e0b"/><text x="34" y="476" font-family="sans-serif" font-size="12.5" font-weight="500" fill="#cbd5e1">NetCat</text><circle cx="21" cy="493" r="2.6" fill="#f59e0b"/><text x="34" y="497" font-family="sans-serif" font-size="12.5" font-weight="500" fill="#cbd5e1">Hydra</text><circle cx="21" cy="514" r="2.6" fill="#f59e0b"/><text x="34" y="518" font-family="sans-serif" font-size="12.5" font-weight="500" fill="#cbd5e1">MobSF</text><circle cx="21" cy="535" r="2.6" fill="#f59e0b"/><text x="34" y="539" font-family="sans-serif" font-size="12.5" font-weight="500" fill="#cbd5e1">DNSRecon</text><circle cx="21" cy="556" r="2.6" fill="#f59e0b"/><text x="34" y="560" font-family="sans-serif" font-size="12.5" font-weight="500" fill="#cbd5e1">Nessus</text><circle cx="21" cy="577" r="2.6" fill="#f59e0b"/><text x="34" y="581" font-family="sans-serif" font-size="12.5" font-weight="500" fill="#cbd5e1">dSniff</text><circle cx="21" cy="598" r="2.6" fill="#f59e0b"/><text x="34" y="602" font-family="sans-serif" font-size="12.5" font-weight="500" fill="#cbd5e1">Medusa</text><circle cx="21" cy="619" r="2.6" fill="#f59e0b"/><text x="34" y="623" font-family="sans-serif" font-size="12.5" font-weight="500" fill="#cbd5e1">MASTG</text><circle cx="21" cy="640" r="2.6" fill="#f59e0b"/><text x="34" y="644" font-family="sans-serif" font-size="12.5" font-weight="500" fill="#cbd5e1">Netdiscover</text><circle cx="21" cy="661" r="2.6" fill="#f59e0b"/><text x="34" y="665" font-family="sans-serif" font-size="12.5" font-weight="500" fill="#cbd5e1">Burp Suite</text><circle cx="21" cy="682" r="2.6" fill="#f59e0b"/><text x="34" y="686" font-family="sans-serif" font-size="12.5" font-weight="500" fill="#cbd5e1">Scapy</text><circle cx="21" cy="703" r="2.6" fill="#f59e0b"/><text x="34" y="707" font-family="sans-serif" font-size="12.5" font-weight="500" fill="#cbd5e1">Rainbowcrack</text><circle cx="21" cy="724" r="2.6" fill="#f59e0b"/><text x="34" y="728" font-family="sans-serif" font-size="12.5" font-weight="500" fill="#cbd5e1">NetHunter</text><circle cx="21" cy="745" r="2.6" fill="#f59e0b"/><text x="34" y="749" font-family="sans-serif" font-size="12.5" font-weight="500" fill="#cbd5e1">Maltego</text><circle cx="21" cy="766" r="2.6" fill="#f59e0b"/><text x="34" y="770" font-family="sans-serif" font-size="12.5" font-weight="500" fill="#cbd5e1">ZAP</text><circle cx="21" cy="787" r="2.6" fill="#f59e0b"/><text x="34" y="791" font-family="sans-serif" font-size="12.5" font-weight="500" fill="#cbd5e1">hping3</text><circle cx="21" cy="808" r="2.6" fill="#f59e0b"/><text x="34" y="812" font-family="sans-serif" font-size="12.5" font-weight="500" fill="#cbd5e1">CeWL</text><circle cx="21" cy="829" r="2.6" fill="#f59e0b"/><text x="34" y="833" font-family="sans-serif" font-size="12.5" font-weight="500" fill="#cbd5e1">Android Tamer</text><circle cx="21" cy="850" r="2.6" fill="#f59e0b"/><text x="34" y="854" font-family="sans-serif" font-size="12.5" font-weight="500" fill="#cbd5e1">Unicornscan</text><circle cx="21" cy="871" r="2.6" fill="#f59e0b"/><text x="34" y="875" font-family="sans-serif" font-size="12.5" font-weight="500" fill="#cbd5e1">Yersinia</text><circle cx="21" cy="892" r="2.6" fill="#f59e0b"/><text x="34" y="896" font-family="sans-serif" font-size="12.5" font-weight="500" fill="#cbd5e1">Patator</text><circle cx="21" cy="913" r="2.6" fill="#f59e0b"/><text x="34" y="917" font-family="sans-serif" font-size="12.5" font-weight="500" fill="#cbd5e1">Apktool</text><circle cx="21" cy="934" r="2.6" fill="#f59e0b"/><text x="34" y="938" font-family="sans-serif" font-size="12.5" font-weight="500" fill="#cbd5e1">p0F</text><circle cx="21" cy="955" r="2.6" fill="#f59e0b"/><text x="34" y="959" font-family="sans-serif" font-size="12.5" font-weight="500" fill="#cbd5e1">Ophcrack</text><circle cx="21" cy="976" r="2.6" fill="#f59e0b"/><text x="34" y="980" font-family="sans-serif" font-size="12.5" font-weight="500" fill="#cbd5e1">Quark Engine</text><circle cx="21" cy="997" r="2.6" fill="#f59e0b"/><text x="34" y="1001" font-family="sans-serif" font-size="12.5" font-weight="500" fill="#cbd5e1">Masscan</text><circle cx="21" cy="1018" r="2.6" fill="#f59e0b"/><text x="34" y="1022" font-family="sans-serif" font-size="12.5" font-weight="500" fill="#cbd5e1">crowbar</text><circle cx="21" cy="1039" r="2.6" fill="#f59e0b"/><text x="34" y="1043" font-family="sans-serif" font-size="12.5" font-weight="500" fill="#cbd5e1">bettercap</text><circle cx="21" cy="1060" r="2.6" fill="#f59e0b"/><text x="34" y="1064" font-family="sans-serif" font-size="12.5" font-weight="500" fill="#cbd5e1">ZMap</text><circle cx="21" cy="1081" r="2.6" fill="#f59e0b"/><text x="34" y="1085" font-family="sans-serif" font-size="12.5" font-weight="500" fill="#cbd5e1">Fcrackzip</text><circle cx="21" cy="1102" r="2.6" fill="#f59e0b"/><text x="34" y="1106" font-family="sans-serif" font-size="12.5" font-weight="500" fill="#cbd5e1">Masscan</text><circle cx="21" cy="1123" r="2.6" fill="#f59e0b"/><text x="34" y="1127" font-family="sans-serif" font-size="12.5" font-weight="500" fill="#cbd5e1">OSINT</text>
    </g>
    </g>
  </g>

  <g transform="translate(579.0, 1545)">
    <rect x="-440" y="-38" width="880" height="76" rx="14" fill="#0b0e1a" stroke="url(#brand-grad)" stroke-width="2"/>
    <text x="0" y="-12" text-anchor="middle" font-size="16" font-weight="800" fill="#ffffff" letter-spacing="3px">
      <tspan fill="#ff0055">RED</tspan><tspan fill="#ffffff">TEAM</tspan><tspan fill="#00f0ff">APT</tspan>
      <tspan fill="#94a3b8" font-size="11"> • </tspan>
      <tspan fill="#a1a1aa" font-size="10.5">OFFICIAL OFFENSIVE SECURITY &amp; ADVERSARY SIMULATION ROADMAP</tspan>
    </text>
    <g transform="translate(-315, 6)">
      <rect width="190" height="26" rx="6" fill="#18181b" stroke="#ff0055" stroke-width="1.2"/>
      <text x="95" y="13" text-anchor="middle" dominant-baseline="middle" font-family="'Fira Code', monospace" font-size="10.5" font-weight="600" fill="#f43f5e">RedTeamAPT.ir</text>

      <rect x="220" width="190" height="26" rx="6" fill="#18181b" stroke="#00f0ff" stroke-width="1.2"/>
      <text x="315" y="13" text-anchor="middle" dominant-baseline="middle" font-family="'Fira Code', monospace" font-size="10.5" font-weight="600" fill="#38bdf8">TELEGRAM : @RedTeamAcademy</text>

      <rect x="440" width="190" height="26" rx="6" fill="#18181b" stroke="#a855f7" stroke-width="1.2"/>
      <text x="535" y="13" text-anchor="middle" dominant-baseline="middle" font-family="'Fira Code', monospace" font-size="10.5" font-weight="600" fill="#c084fc">GITHUB : RedTeamAPT</text>
    </g>
  </g>
</svg>