<?xml version="1.0" encoding="UTF-8"?>
<svg xmlns="http://www.w3.org/2000/svg" viewBox="0 0 2154 2055" width="100%" height="100%">
  <defs>
    <linearGradient id="canvas-bg" x1="0%" y1="0%" x2="100%" y2="100%">
      <stop offset="0%" stop-color="#04060d"/>
      <stop offset="50%" stop-color="#080c1d"/>
      <stop offset="100%" stop-color="#020306"/>
    </linearGradient>
    <linearGradient id="brand-grad" x1="0%" y1="0%" x2="100%" y2="0%">
      <stop offset="0%" stop-color="#ff0055"/>
      <stop offset="50%" stop-color="#7928ca"/>
      <stop offset="100%" stop-color="#00f0ff"/>
    </linearGradient>
    <style>
      @import url('https://fonts.googleapis.com/css2?family=Fira+Code:wght@400;500;600;700&amp;family=Inter:wght@400;600;700;800&amp;display=swap');
      text { font-family: 'Inter', -apple-system, sans-serif; }
      .code-font { font-family: 'Fira Code', monospace; }
    </style>
  </defs>
  <rect width="2154" height="2055" fill="url(#canvas-bg)"/>
  <g opacity="0.03" stroke="#ffffff" stroke-width="1">
    <pattern id="grid" width="40" height="40" patternUnits="userSpaceOnUse">
      <path d="M 40 0 L 0 0 0 40" fill="none"/>
    </pattern>
    <rect width="2154" height="2055" fill="url(#grid)"/>
  </g>
  <g transform="rotate(-25 1077.0 1027.5)" opacity="0.035" pointer-events="none">
    <text x="1077.0" y="513.75" text-anchor="middle" font-family="monospace" font-weight="900" font-size="110" fill="#ffffff" letter-spacing="16px">REDTEAMAPT.IR</text>
    <text x="1077.0" y="1027.5" text-anchor="middle" font-family="monospace" font-weight="900" font-size="110" fill="#ffffff" letter-spacing="16px">REDTEAMAPT.IR</text>
    <text x="1077.0" y="1541.25" text-anchor="middle" font-family="monospace" font-weight="900" font-size="110" fill="#ffffff" letter-spacing="16px">REDTEAMAPT.IR</text>
  </g>

  <g transform="translate(1077.0, 75)">
    <rect x="-400.0" y="-46.0" width="800" height="92" rx="18" fill="#0c1224" stroke="url(#brand-grad)" stroke-width="2.5"/>
    <text x="0" y="2" text-anchor="middle" font-family="'Fira Code', monospace" font-size="30" font-weight="800" fill="#ffffff">
      <tspan fill="#ff0055">RED</tspan><tspan fill="#ffffff">TEAM</tspan><tspan fill="#00f0ff">APT</tspan>
      <tspan fill="#94a3b8" font-size="22"> | </tspan>
      <tspan fill="#38bdf8">WIRESHARK</tspan>
    </text>
    <text x="0" y="26" text-anchor="middle" font-family="'Inter', sans-serif" font-size="12" font-weight="600" fill="#94a3b8" letter-spacing="3px">ADVANCED OFFENSIVE CYBERSECURITY &amp; RED TEAM ROADMAP</text>
  </g>

  <g transform="translate(90, 170)">
    <g transform="translate(0, 0)">
    <g class="cat-card">
      <rect x="0" y="0" width="480" height="179" rx="10"
            fill="none" stroke="#00f0ff" stroke-width="1.6" stroke-dasharray="4,3"/>
      <rect x="14" y="-16" width="478.0" height="32" rx="7" fill="#00f0ff"/>
      <text x="253.0" y="5" text-anchor="middle"
            font-family="'Fira Code', monospace" font-size="12.5" font-weight="800" fill="#04060d">Frame number from the begining of the packet capture</text>
      <circle cx="21" cy="52" r="2.6" fill="#00f0ff"/><text x="34" y="56" font-family="sans-serif" font-size="12.5" font-weight="500" fill="#cbd5e1">No.</text><circle cx="21" cy="73" r="2.6" fill="#00f0ff"/><text x="34" y="77" font-family="sans-serif" font-size="12.5" font-weight="500" fill="#cbd5e1">Seconds from the first frame</text><circle cx="21" cy="94" r="2.6" fill="#00f0ff"/><text x="34" y="98" font-family="sans-serif" font-size="12.5" font-weight="500" fill="#cbd5e1">Time</text><circle cx="21" cy="115" r="2.6" fill="#00f0ff"/><text x="34" y="119" font-family="sans-serif" font-size="12.5" font-weight="500" fill="#cbd5e1">Source address, commonly an IPv4, IPv6 or Ethernet address</text><circle cx="21" cy="136" r="2.6" fill="#00f0ff"/><text x="34" y="140" font-family="sans-serif" font-size="12.5" font-weight="500" fill="#cbd5e1">Source (src)</text>
    </g>
    </g><g transform="translate(498, 0)">
    <g class="cat-card">
      <rect x="0" y="0" width="480" height="381" rx="10"
            fill="none" stroke="#f59e0b" stroke-width="1.6" stroke-dasharray="4,3"/>
      <rect x="14" y="-16" width="155.0" height="32" rx="7" fill="#f59e0b"/>
      <text x="91.5" y="5" text-anchor="middle"
            font-family="'Fira Code', monospace" font-size="12.5" font-weight="800" fill="#04060d">Packet Columns</text>
      <circle cx="21" cy="52" r="2.6" fill="#f59e0b"/><text x="34" y="56" font-family="sans-serif" font-size="12.5" font-weight="500" fill="#cbd5e1">Destination adress</text><circle cx="21" cy="73" r="2.6" fill="#f59e0b"/><text x="34" y="77" font-family="sans-serif" font-size="12.5" font-weight="500" fill="#cbd5e1">Destination (dst)</text><circle cx="21" cy="94" r="2.6" fill="#f59e0b"/><text x="34" y="98" font-family="sans-serif" font-size="12.5" font-weight="500" fill="#cbd5e1">Protocol used in the Ethernet frame, IP packet , or TC</text><text x="34" y="115" font-family="sans-serif" font-size="12.5" font-weight="500" fill="#cbd5e1">segment</text><circle cx="21" cy="132" r="2.6" fill="#f59e0b"/><text x="34" y="136" font-family="sans-serif" font-size="12.5" font-weight="500" fill="#cbd5e1">Protocol</text><circle cx="21" cy="153" r="2.6" fill="#f59e0b"/><text x="34" y="157" font-family="sans-serif" font-size="12.5" font-weight="500" fill="#cbd5e1">Length of the frame in by tes</text><circle cx="21" cy="174" r="2.6" fill="#f59e0b"/><text x="34" y="178" font-family="sans-serif" font-size="12.5" font-weight="500" fill="#cbd5e1">Length</text><circle cx="21" cy="195" r="2.6" fill="#f59e0b"/><text x="34" y="199" font-family="sans-serif" font-size="12.5" font-weight="500" fill="#cbd5e1">and or &amp;&amp;</text><circle cx="21" cy="216" r="2.6" fill="#f59e0b"/><text x="34" y="220" font-family="sans-serif" font-size="12.5" font-weight="500" fill="#cbd5e1">Logical AND</text><circle cx="21" cy="237" r="2.6" fill="#f59e0b"/><text x="34" y="241" font-family="sans-serif" font-size="12.5" font-weight="500" fill="#cbd5e1">All the conditions should match</text><circle cx="21" cy="258" r="2.6" fill="#f59e0b"/><text x="34" y="262" font-family="sans-serif" font-size="12.5" font-weight="500" fill="#cbd5e1">or or ||</text><circle cx="21" cy="279" r="2.6" fill="#f59e0b"/><text x="34" y="283" font-family="sans-serif" font-size="12.5" font-weight="500" fill="#cbd5e1">Logical OR</text><circle cx="21" cy="300" r="2.6" fill="#f59e0b"/><text x="34" y="304" font-family="sans-serif" font-size="12.5" font-weight="500" fill="#cbd5e1">Either all or one of the condtions should match</text><circle cx="21" cy="321" r="2.6" fill="#f59e0b"/><text x="34" y="325" font-family="sans-serif" font-size="12.5" font-weight="500" fill="#cbd5e1">Exclusive alterations - only one of the two conditions should</text><text x="34" y="342" font-family="sans-serif" font-size="12.5" font-weight="500" fill="#cbd5e1">match not</text>
    </g>
    </g><g transform="translate(996, 0)">
    <g class="cat-card">
      <rect x="0" y="0" width="480" height="452" rx="10"
            fill="none" stroke="#10b981" stroke-width="1.6" stroke-dasharray="4,3"/>
      <rect x="14" y="-16" width="180.5" height="32" rx="7" fill="#10b981"/>
      <text x="104.25" y="5" text-anchor="middle"
            font-family="'Fira Code', monospace" font-size="12.5" font-weight="800" fill="#04060d">Logical Operators</text>
      <circle cx="21" cy="52" r="2.6" fill="#10b981"/><text x="34" y="56" font-family="sans-serif" font-size="12.5" font-weight="500" fill="#cbd5e1">xor or ^ ^</text><circle cx="21" cy="73" r="2.6" fill="#10b981"/><text x="34" y="77" font-family="sans-serif" font-size="12.5" font-weight="500" fill="#cbd5e1">Logical XOR</text><circle cx="21" cy="94" r="2.6" fill="#10b981"/><text x="34" y="98" font-family="sans-serif" font-size="12.5" font-weight="500" fill="#cbd5e1">both</text><circle cx="21" cy="115" r="2.6" fill="#10b981"/><text x="34" y="119" font-family="sans-serif" font-size="12.5" font-weight="500" fill="#cbd5e1">not ot !</text><circle cx="21" cy="136" r="2.6" fill="#10b981"/><text x="34" y="140" font-family="sans-serif" font-size="12.5" font-weight="500" fill="#cbd5e1">Not (Negation)</text><circle cx="21" cy="157" r="2.6" fill="#10b981"/><text x="34" y="161" font-family="sans-serif" font-size="12.5" font-weight="500" fill="#cbd5e1">Not equal to</text><circle cx="21" cy="178" r="2.6" fill="#10b981"/><text x="34" y="182" font-family="sans-serif" font-size="12.5" font-weight="500" fill="#cbd5e1">[ n ] [ . . . ]</text><circle cx="21" cy="199" r="2.6" fill="#10b981"/><text x="34" y="203" font-family="sans-serif" font-size="12.5" font-weight="500" fill="#cbd5e1">Substring operator</text><circle cx="21" cy="220" r="2.6" fill="#10b981"/><text x="34" y="224" font-family="sans-serif" font-size="12.5" font-weight="500" fill="#cbd5e1">Filter a specific word or text</text><circle cx="21" cy="241" r="2.6" fill="#10b981"/><text x="34" y="245" font-family="sans-serif" font-size="12.5" font-weight="500" fill="#cbd5e1">ip.dest == 192.168.1.1</text><circle cx="21" cy="262" r="2.6" fill="#10b981"/><text x="34" y="266" font-family="sans-serif" font-size="12.5" font-weight="500" fill="#cbd5e1">Equal</text><circle cx="21" cy="283" r="2.6" fill="#10b981"/><text x="34" y="287" font-family="sans-serif" font-size="12.5" font-weight="500" fill="#cbd5e1">eq or ==</text><circle cx="21" cy="304" r="2.6" fill="#10b981"/><text x="34" y="308" font-family="sans-serif" font-size="12.5" font-weight="500" fill="#cbd5e1">ip.dest != 192.168.1.1</text><circle cx="21" cy="325" r="2.6" fill="#10b981"/><text x="34" y="329" font-family="sans-serif" font-size="12.5" font-weight="500" fill="#cbd5e1">Not equal</text><circle cx="21" cy="346" r="2.6" fill="#10b981"/><text x="34" y="350" font-family="sans-serif" font-size="12.5" font-weight="500" fill="#cbd5e1">ne or !=</text><circle cx="21" cy="367" r="2.6" fill="#10b981"/><text x="34" y="371" font-family="sans-serif" font-size="12.5" font-weight="500" fill="#cbd5e1">frame. len &gt; 10</text><circle cx="21" cy="388" r="2.6" fill="#10b981"/><text x="34" y="392" font-family="sans-serif" font-size="12.5" font-weight="500" fill="#cbd5e1">Greater than</text><circle cx="21" cy="409" r="2.6" fill="#10b981"/><text x="34" y="413" font-family="sans-serif" font-size="12.5" font-weight="500" fill="#cbd5e1">gt or &gt;</text>
    </g>
    </g><g transform="translate(1494, 0)">
    <g class="cat-card">
      <rect x="0" y="0" width="480" height="305" rx="10"
            fill="none" stroke="#ef4444" stroke-width="1.6" stroke-dasharray="4,3"/>
      <rect x="14" y="-16" width="146.5" height="32" rx="7" fill="#ef4444"/>
      <text x="87.25" y="5" text-anchor="middle"
            font-family="'Fira Code', monospace" font-size="12.5" font-weight="800" fill="#04060d">Packet Filter</text>
      <circle cx="21" cy="52" r="2.6" fill="#ef4444"/><text x="34" y="56" font-family="sans-serif" font-size="12.5" font-weight="500" fill="#cbd5e1">frame.len &lt;10</text><circle cx="21" cy="73" r="2.6" fill="#ef4444"/><text x="34" y="77" font-family="sans-serif" font-size="12.5" font-weight="500" fill="#cbd5e1">less than</text><circle cx="21" cy="94" r="2.6" fill="#ef4444"/><text x="34" y="98" font-family="sans-serif" font-size="12.5" font-weight="500" fill="#cbd5e1">it or &lt;</text><circle cx="21" cy="115" r="2.6" fill="#ef4444"/><text x="34" y="119" font-family="sans-serif" font-size="12.5" font-weight="500" fill="#cbd5e1">frame. len &gt;= 10</text><circle cx="21" cy="136" r="2.6" fill="#ef4444"/><text x="34" y="140" font-family="sans-serif" font-size="12.5" font-weight="500" fill="#cbd5e1">Greater than or equal</text><circle cx="21" cy="157" r="2.6" fill="#ef4444"/><text x="34" y="161" font-family="sans-serif" font-size="12.5" font-weight="500" fill="#cbd5e1">ge or &lt;=</text><circle cx="21" cy="178" r="2.6" fill="#ef4444"/><text x="34" y="182" font-family="sans-serif" font-size="12.5" font-weight="500" fill="#cbd5e1">frame. len &lt;= 10</text><circle cx="21" cy="199" r="2.6" fill="#ef4444"/><text x="34" y="203" font-family="sans-serif" font-size="12.5" font-weight="500" fill="#cbd5e1">Less than or equal</text><circle cx="21" cy="220" r="2.6" fill="#ef4444"/><text x="34" y="224" font-family="sans-serif" font-size="12.5" font-weight="500" fill="#cbd5e1">le or &lt;=</text><circle cx="21" cy="241" r="2.6" fill="#ef4444"/><text x="34" y="245" font-family="sans-serif" font-size="12.5" font-weight="500" fill="#cbd5e1">Capture Filter</text><circle cx="21" cy="262" r="2.6" fill="#ef4444"/><text x="34" y="266" font-family="sans-serif" font-size="12.5" font-weight="500" fill="#cbd5e1">Filter packets during capture</text>
    </g>
    </g><g transform="translate(0, 197)">
    <g class="cat-card">
      <rect x="0" y="0" width="480" height="196" rx="10"
            fill="none" stroke="#8b5cf6" stroke-width="1.6" stroke-dasharray="4,3"/>
      <rect x="14" y="-16" width="140" height="32" rx="7" fill="#8b5cf6"/>
      <text x="84.0" y="5" text-anchor="middle"
            font-family="'Fira Code', monospace" font-size="12.5" font-weight="800" fill="#04060d">Filter Types</text>
      <circle cx="21" cy="52" r="2.6" fill="#8b5cf6"/><text x="34" y="56" font-family="sans-serif" font-size="12.5" font-weight="500" fill="#cbd5e1">Display Fiilter</text><circle cx="21" cy="73" r="2.6" fill="#8b5cf6"/><text x="34" y="77" font-family="sans-serif" font-size="12.5" font-weight="500" fill="#cbd5e1">Hide packets from a capture display</text><circle cx="21" cy="94" r="2.6" fill="#8b5cf6"/><text x="34" y="98" font-family="sans-serif" font-size="12.5" font-weight="500" fill="#cbd5e1">Sets interface to capture all packets on a network segment to</text><text x="34" y="115" font-family="sans-serif" font-size="12.5" font-weight="500" fill="#cbd5e1">which it is</text><circle cx="21" cy="132" r="2.6" fill="#8b5cf6"/><text x="34" y="136" font-family="sans-serif" font-size="12.5" font-weight="500" fill="#cbd5e1">Promiscuous mode</text><circle cx="21" cy="153" r="2.6" fill="#8b5cf6"/><text x="34" y="157" font-family="sans-serif" font-size="12.5" font-weight="500" fill="#cbd5e1">associated to</text>
    </g>
    </g><g transform="translate(1494, 323)">
    <g class="cat-card">
      <rect x="0" y="0" width="480" height="196" rx="10"
            fill="none" stroke="#ec4899" stroke-width="1.6" stroke-dasharray="4,3"/>
      <rect x="14" y="-16" width="163.5" height="32" rx="7" fill="#ec4899"/>
      <text x="95.75" y="5" text-anchor="middle"
            font-family="'Fira Code', monospace" font-size="12.5" font-weight="800" fill="#04060d">Capturing Modes</text>
      <circle cx="21" cy="52" r="2.6" fill="#ec4899"/><text x="34" y="56" font-family="sans-serif" font-size="12.5" font-weight="500" fill="#cbd5e1">Setup the wireless interface to capture all traffic it can</text><text x="34" y="73" font-family="sans-serif" font-size="12.5" font-weight="500" fill="#cbd5e1">receive (Unix/</text><circle cx="21" cy="90" r="2.6" fill="#ec4899"/><text x="34" y="94" font-family="sans-serif" font-size="12.5" font-weight="500" fill="#cbd5e1">Monitor Mode</text><circle cx="21" cy="111" r="2.6" fill="#ec4899"/><text x="34" y="115" font-family="sans-serif" font-size="12.5" font-weight="500" fill="#cbd5e1">Linux only)</text><circle cx="21" cy="132" r="2.6" fill="#ec4899"/><text x="34" y="136" font-family="sans-serif" font-size="12.5" font-weight="500" fill="#cbd5e1">Slice Operator</text><circle cx="21" cy="153" r="2.6" fill="#ec4899"/><text x="34" y="157" font-family="sans-serif" font-size="12.5" font-weight="500" fill="#cbd5e1">[ ... ] Range of values</text>
    </g>
    </g><g transform="translate(498, 399)">
    <g class="cat-card">
      <rect x="0" y="0" width="480" height="158" rx="10"
            fill="none" stroke="#3b82f6" stroke-width="1.6" stroke-dasharray="4,3"/>
      <rect x="14" y="-16" width="146.5" height="32" rx="7" fill="#3b82f6"/>
      <text x="87.25" y="5" text-anchor="middle"
            font-family="'Fira Code', monospace" font-size="12.5" font-weight="800" fill="#04060d">Miscellaneous</text>
      <circle cx="21" cy="52" r="2.6" fill="#3b82f6"/><text x="34" y="56" font-family="sans-serif" font-size="12.5" font-weight="500" fill="#cbd5e1">Membership Operator</text><circle cx="21" cy="73" r="2.6" fill="#3b82f6"/><text x="34" y="77" font-family="sans-serif" font-size="12.5" font-weight="500" fill="#cbd5e1">{} - In</text><circle cx="21" cy="94" r="2.6" fill="#3b82f6"/><text x="34" y="98" font-family="sans-serif" font-size="12.5" font-weight="500" fill="#cbd5e1">CTRL + E</text><circle cx="21" cy="115" r="2.6" fill="#3b82f6"/><text x="34" y="119" font-family="sans-serif" font-size="12.5" font-weight="500" fill="#cbd5e1">Start/Stop Capturing</text>
    </g>
    </g><g transform="translate(0, 411)">
    <g class="cat-card">
      <rect x="0" y="0" width="480" height="95" rx="10"
            fill="none" stroke="#00f0ff" stroke-width="1.6" stroke-dasharray="4,3"/>
      <rect x="14" y="-16" width="214.5" height="32" rx="7" fill="#00f0ff"/>
      <text x="121.25" y="5" text-anchor="middle"
            font-family="'Fira Code', monospace" font-size="12.5" font-weight="800" fill="#04060d">Capture Filter Syntax</text>
      <circle cx="21" cy="52" r="2.6" fill="#00f0ff"/><text x="34" y="56" font-family="sans-serif" font-size="12.5" font-weight="500" fill="#cbd5e1">tcp src 192.168.1.1 80 and tcp dst 202.164.30.1</text>
    </g>
    </g><g transform="translate(996, 470)">
    <g class="cat-card">
      <rect x="0" y="0" width="480" height="339" rx="10"
            fill="none" stroke="#f59e0b" stroke-width="1.6" stroke-dasharray="4,3"/>
      <rect x="14" y="-16" width="214.5" height="32" rx="7" fill="#f59e0b"/>
      <text x="121.25" y="5" text-anchor="middle"
            font-family="'Fira Code', monospace" font-size="12.5" font-weight="800" fill="#04060d">Display Filter Syntax</text>
      <circle cx="21" cy="52" r="2.6" fill="#f59e0b"/><text x="34" y="56" font-family="sans-serif" font-size="12.5" font-weight="500" fill="#cbd5e1">http dest dest == 192.168.1.1 and tcp port</text><circle cx="21" cy="73" r="2.6" fill="#f59e0b"/><text x="34" y="77" font-family="sans-serif" font-size="12.5" font-weight="500" fill="#cbd5e1">Move between screen elements, e.g. from the toolbars to the</text><text x="34" y="94" font-family="sans-serif" font-size="12.5" font-weight="500" fill="#cbd5e1">packet list</text><circle cx="21" cy="111" r="2.6" fill="#f59e0b"/><text x="34" y="115" font-family="sans-serif" font-size="12.5" font-weight="500" fill="#cbd5e1">Tab or Shift + Tab</text><circle cx="21" cy="132" r="2.6" fill="#f59e0b"/><text x="34" y="136" font-family="sans-serif" font-size="12.5" font-weight="500" fill="#cbd5e1">Atl + → or option + →</text><circle cx="21" cy="153" r="2.6" fill="#f59e0b"/><text x="34" y="157" font-family="sans-serif" font-size="12.5" font-weight="500" fill="#cbd5e1">Move to the next packet in the selection history.</text><circle cx="21" cy="174" r="2.6" fill="#f59e0b"/><text x="34" y="178" font-family="sans-serif" font-size="12.5" font-weight="500" fill="#cbd5e1">to the packet detail.</text><circle cx="21" cy="195" r="2.6" fill="#f59e0b"/><text x="34" y="199" font-family="sans-serif" font-size="12.5" font-weight="500" fill="#cbd5e1">In the packet detail, opens the selected tree item.</text><circle cx="21" cy="216" r="2.6" fill="#f59e0b"/><text x="34" y="220" font-family="sans-serif" font-size="12.5" font-weight="500" fill="#cbd5e1">Move to the next packet or detail item.</text><circle cx="21" cy="237" r="2.6" fill="#f59e0b"/><text x="34" y="241" font-family="sans-serif" font-size="12.5" font-weight="500" fill="#cbd5e1">Shift + →</text><circle cx="21" cy="258" r="2.6" fill="#f59e0b"/><text x="34" y="262" font-family="sans-serif" font-size="12.5" font-weight="500" fill="#cbd5e1">In the packet detail, open the selected tree items and all of</text><text x="34" y="279" font-family="sans-serif" font-size="12.5" font-weight="500" fill="#cbd5e1">its subtrees.</text><circle cx="21" cy="296" r="2.6" fill="#f59e0b"/><text x="34" y="300" font-family="sans-serif" font-size="12.5" font-weight="500" fill="#cbd5e1">Move to the previous packet or detail item.</text>
    </g>
    </g><g transform="translate(0, 524)">
    <g class="cat-card">
      <rect x="0" y="0" width="480" height="570" rx="10"
            fill="none" stroke="#10b981" stroke-width="1.6" stroke-dasharray="4,3"/>
      <rect x="14" y="-16" width="189.0" height="32" rx="7" fill="#10b981"/>
      <text x="108.5" y="5" text-anchor="middle"
            font-family="'Fira Code', monospace" font-size="12.5" font-weight="800" fill="#04060d">Keyboard Shortcuts</text>
      <circle cx="21" cy="52" r="2.6" fill="#10b981"/><text x="34" y="56" font-family="sans-serif" font-size="12.5" font-weight="500" fill="#cbd5e1">In the packet detail, opens all tree items.</text><circle cx="21" cy="73" r="2.6" fill="#10b981"/><text x="34" y="77" font-family="sans-serif" font-size="12.5" font-weight="500" fill="#cbd5e1">Ctrl + →</text><circle cx="21" cy="94" r="2.6" fill="#10b981"/><text x="34" y="98" font-family="sans-serif" font-size="12.5" font-weight="500" fill="#cbd5e1">Move to the next packet, even if the packet list isn&apos;t found</text><circle cx="21" cy="115" r="2.6" fill="#10b981"/><text x="34" y="119" font-family="sans-serif" font-size="12.5" font-weight="500" fill="#cbd5e1">Ctrl + ↓ or F8</text><circle cx="21" cy="136" r="2.6" fill="#10b981"/><text x="34" y="140" font-family="sans-serif" font-size="12.5" font-weight="500" fill="#cbd5e1">Ctrl + ←</text><circle cx="21" cy="157" r="2.6" fill="#10b981"/><text x="34" y="161" font-family="sans-serif" font-size="12.5" font-weight="500" fill="#cbd5e1">In the packet detail, close all the tree items.</text><circle cx="21" cy="178" r="2.6" fill="#10b981"/><text x="34" y="182" font-family="sans-serif" font-size="12.5" font-weight="500" fill="#cbd5e1">Ctrt + ↑ or F7</text><circle cx="21" cy="199" r="2.6" fill="#10b981"/><text x="34" y="203" font-family="sans-serif" font-size="12.5" font-weight="500" fill="#cbd5e1">Move to the previous packet, even if the packet list isn&apos;t</text><text x="34" y="220" font-family="sans-serif" font-size="12.5" font-weight="500" fill="#cbd5e1">found</text><circle cx="21" cy="237" r="2.6" fill="#10b981"/><text x="34" y="241" font-family="sans-serif" font-size="12.5" font-weight="500" fill="#cbd5e1">In the packet detail, jumps to the parent node.</text><circle cx="21" cy="258" r="2.6" fill="#10b981"/><text x="34" y="262" font-family="sans-serif" font-size="12.5" font-weight="500" fill="#cbd5e1">Backspace</text><circle cx="21" cy="279" r="2.6" fill="#10b981"/><text x="34" y="283" font-family="sans-serif" font-size="12.5" font-weight="500" fill="#cbd5e1">Ctrl + .</text><circle cx="21" cy="300" r="2.6" fill="#10b981"/><text x="34" y="304" font-family="sans-serif" font-size="12.5" font-weight="500" fill="#cbd5e1">Move to next packet of the conversation (TCP, UDP or IP).</text><circle cx="21" cy="321" r="2.6" fill="#10b981"/><text x="34" y="325" font-family="sans-serif" font-size="12.5" font-weight="500" fill="#cbd5e1">In the packet detail, toggles the selected tree item.</text><circle cx="21" cy="342" r="2.6" fill="#10b981"/><text x="34" y="346" font-family="sans-serif" font-size="12.5" font-weight="500" fill="#cbd5e1">Return or Enter</text><circle cx="21" cy="363" r="2.6" fill="#10b981"/><text x="34" y="367" font-family="sans-serif" font-size="12.5" font-weight="500" fill="#cbd5e1">Ctrl + ,</text><circle cx="21" cy="384" r="2.6" fill="#10b981"/><text x="34" y="388" font-family="sans-serif" font-size="12.5" font-weight="500" fill="#cbd5e1">Move to the previous packet of the conservation (TCP, UDP or</text><text x="34" y="405" font-family="sans-serif" font-size="12.5" font-weight="500" fill="#cbd5e1">IP).</text><circle cx="21" cy="422" r="2.6" fill="#10b981"/><text x="34" y="426" font-family="sans-serif" font-size="12.5" font-weight="500" fill="#cbd5e1">lat</text><circle cx="21" cy="443" r="2.6" fill="#10b981"/><text x="34" y="447" font-family="sans-serif" font-size="12.5" font-weight="500" fill="#cbd5e1">ether</text><circle cx="21" cy="464" r="2.6" fill="#10b981"/><text x="34" y="468" font-family="sans-serif" font-size="12.5" font-weight="500" fill="#cbd5e1">sca</text><circle cx="21" cy="485" r="2.6" fill="#10b981"/><text x="34" y="489" font-family="sans-serif" font-size="12.5" font-weight="500" fill="#cbd5e1">fddi</text><circle cx="21" cy="506" r="2.6" fill="#10b981"/><text x="34" y="510" font-family="sans-serif" font-size="12.5" font-weight="500" fill="#cbd5e1">moprc</text><circle cx="21" cy="527" r="2.6" fill="#10b981"/><text x="34" y="531" font-family="sans-serif" font-size="12.5" font-weight="500" fill="#cbd5e1">ip</text>
    </g>
    </g><g transform="translate(1494, 537)">
    <g class="cat-card">
      <rect x="0" y="0" width="480" height="578" rx="10"
            fill="none" stroke="#ef4444" stroke-width="1.6" stroke-dasharray="4,3"/>
      <rect x="14" y="-16" width="140" height="32" rx="7" fill="#ef4444"/>
      <text x="84.0" y="5" text-anchor="middle"
            font-family="'Fira Code', monospace" font-size="12.5" font-weight="800" fill="#04060d">Protocols</text>
      <circle cx="21" cy="52" r="2.6" fill="#ef4444"/><text x="34" y="56" font-family="sans-serif" font-size="12.5" font-weight="500" fill="#cbd5e1">mopdl</text><circle cx="21" cy="73" r="2.6" fill="#ef4444"/><text x="34" y="77" font-family="sans-serif" font-size="12.5" font-weight="500" fill="#cbd5e1">arp</text><circle cx="21" cy="94" r="2.6" fill="#ef4444"/><text x="34" y="98" font-family="sans-serif" font-size="12.5" font-weight="500" fill="#cbd5e1">tcp</text><circle cx="21" cy="115" r="2.6" fill="#ef4444"/><text x="34" y="119" font-family="sans-serif" font-size="12.5" font-weight="500" fill="#cbd5e1">rarp</text><circle cx="21" cy="136" r="2.6" fill="#ef4444"/><text x="34" y="140" font-family="sans-serif" font-size="12.5" font-weight="500" fill="#cbd5e1">udp</text><circle cx="21" cy="157" r="2.6" fill="#ef4444"/><text x="34" y="161" font-family="sans-serif" font-size="12.5" font-weight="500" fill="#cbd5e1">decnet</text><circle cx="21" cy="178" r="2.6" fill="#ef4444"/><text x="34" y="182" font-family="sans-serif" font-size="12.5" font-weight="500" fill="#cbd5e1">Wireshark Filter by IP</text><circle cx="21" cy="199" r="2.6" fill="#ef4444"/><text x="34" y="203" font-family="sans-serif" font-size="12.5" font-weight="500" fill="#cbd5e1">ip.add == 192.168.0.2</text><circle cx="21" cy="220" r="2.6" fill="#ef4444"/><text x="34" y="224" font-family="sans-serif" font-size="12.5" font-weight="500" fill="#cbd5e1">http.host == &quot;host name&quot;</text><circle cx="21" cy="241" r="2.6" fill="#ef4444"/><text x="34" y="245" font-family="sans-serif" font-size="12.5" font-weight="500" fill="#cbd5e1">Filter by URL</text><circle cx="21" cy="262" r="2.6" fill="#ef4444"/><text x="34" y="266" font-family="sans-serif" font-size="12.5" font-weight="500" fill="#cbd5e1">Filter by Destination IP</text><circle cx="21" cy="283" r="2.6" fill="#ef4444"/><text x="34" y="287" font-family="sans-serif" font-size="12.5" font-weight="500" fill="#cbd5e1">ip.dest == 192.168.0.2</text><circle cx="21" cy="304" r="2.6" fill="#ef4444"/><text x="34" y="308" font-family="sans-serif" font-size="12.5" font-weight="500" fill="#cbd5e1">frame.time &gt;= &quot;Feb 02, 2023 18:10:00&quot;</text><circle cx="21" cy="325" r="2.6" fill="#ef4444"/><text x="34" y="329" font-family="sans-serif" font-size="12.5" font-weight="500" fill="#cbd5e1">Filter by time stamp</text><circle cx="21" cy="346" r="2.6" fill="#ef4444"/><text x="34" y="350" font-family="sans-serif" font-size="12.5" font-weight="500" fill="#cbd5e1">Filter by Source IP</text><circle cx="21" cy="367" r="2.6" fill="#ef4444"/><text x="34" y="371" font-family="sans-serif" font-size="12.5" font-weight="500" fill="#cbd5e1">ip.src == 192.168.0.2</text><circle cx="21" cy="388" r="2.6" fill="#ef4444"/><text x="34" y="392" font-family="sans-serif" font-size="12.5" font-weight="500" fill="#cbd5e1">tcp.flag.syn == 1 and tcp.flags.ack == 0</text><circle cx="21" cy="409" r="2.6" fill="#ef4444"/><text x="34" y="413" font-family="sans-serif" font-size="12.5" font-weight="500" fill="#cbd5e1">Filter SYN Flag</text><circle cx="21" cy="430" r="2.6" fill="#ef4444"/><text x="34" y="434" font-family="sans-serif" font-size="12.5" font-weight="500" fill="#cbd5e1">Filter by IP range</text><circle cx="21" cy="451" r="2.6" fill="#ef4444"/><text x="34" y="455" font-family="sans-serif" font-size="12.5" font-weight="500" fill="#cbd5e1">ip.addr &gt;=192.168.0.2 and ip.addr &lt;= 192.168.0.200</text><circle cx="21" cy="472" r="2.6" fill="#ef4444"/><text x="34" y="476" font-family="sans-serif" font-size="12.5" font-weight="500" fill="#cbd5e1">waln.fc.type_subtype = 0x08</text><circle cx="21" cy="493" r="2.6" fill="#ef4444"/><text x="34" y="497" font-family="sans-serif" font-size="12.5" font-weight="500" fill="#cbd5e1">Wireshark Beacon Filter</text><circle cx="21" cy="514" r="2.6" fill="#ef4444"/><text x="34" y="518" font-family="sans-serif" font-size="12.5" font-weight="500" fill="#cbd5e1">Filter by Multiple Ips</text><circle cx="21" cy="535" r="2.6" fill="#ef4444"/><text x="34" y="539" font-family="sans-serif" font-size="12.5" font-weight="500" fill="#cbd5e1">ip.addr == 192.168.0.2 and ip.addr == 192.168.0.20</text>
    </g>
    </g><g transform="translate(498, 575)">
    <g class="cat-card">
      <rect x="0" y="0" width="480" height="1162" rx="10"
            fill="none" stroke="#8b5cf6" stroke-width="1.6" stroke-dasharray="4,3"/>
      <rect x="14" y="-16" width="248.5" height="32" rx="7" fill="#8b5cf6"/>
      <text x="138.25" y="5" text-anchor="middle"
            font-family="'Fira Code', monospace" font-size="12.5" font-weight="800" fill="#04060d">Common Filtering Commands</text>
      <circle cx="21" cy="52" r="2.6" fill="#8b5cf6"/><text x="34" y="56" font-family="sans-serif" font-size="12.5" font-weight="500" fill="#cbd5e1">eth.dst == ff:ff:ff:ff:ff:ff</text><circle cx="21" cy="73" r="2.6" fill="#8b5cf6"/><text x="34" y="77" font-family="sans-serif" font-size="12.5" font-weight="500" fill="#cbd5e1">Wireshark Broadcast Filter</text><circle cx="21" cy="94" r="2.6" fill="#8b5cf6"/><text x="34" y="98" font-family="sans-serif" font-size="12.5" font-weight="500" fill="#cbd5e1">Filter out IP address</text><circle cx="21" cy="115" r="2.6" fill="#8b5cf6"/><text x="34" y="119" font-family="sans-serif" font-size="12.5" font-weight="500" fill="#cbd5e1">!(ip.addr == 192.168.0.2)</text><circle cx="21" cy="136" r="2.6" fill="#8b5cf6"/><text x="34" y="140" font-family="sans-serif" font-size="12.5" font-weight="500" fill="#cbd5e1">(eth.dst[0] &amp;1)</text><circle cx="21" cy="157" r="2.6" fill="#8b5cf6"/><text x="34" y="161" font-family="sans-serif" font-size="12.5" font-weight="500" fill="#cbd5e1">Wireshark Mutlicast Filter</text><circle cx="21" cy="178" r="2.6" fill="#8b5cf6"/><text x="34" y="182" font-family="sans-serif" font-size="12.5" font-weight="500" fill="#cbd5e1">Filter subnet</text><circle cx="21" cy="199" r="2.6" fill="#8b5cf6"/><text x="34" y="203" font-family="sans-serif" font-size="12.5" font-weight="500" fill="#cbd5e1">ip.addr == 192.168.0.2/24</text><circle cx="21" cy="220" r="2.6" fill="#8b5cf6"/><text x="34" y="224" font-family="sans-serif" font-size="12.5" font-weight="500" fill="#cbd5e1">ip.host = hostname</text><circle cx="21" cy="241" r="2.6" fill="#8b5cf6"/><text x="34" y="245" font-family="sans-serif" font-size="12.5" font-weight="500" fill="#cbd5e1">Host name Filter</text><circle cx="21" cy="262" r="2.6" fill="#8b5cf6"/><text x="34" y="266" font-family="sans-serif" font-size="12.5" font-weight="500" fill="#cbd5e1">Filter by port</text><circle cx="21" cy="283" r="2.6" fill="#8b5cf6"/><text x="34" y="287" font-family="sans-serif" font-size="12.5" font-weight="500" fill="#cbd5e1">tcp.port == 25</text><circle cx="21" cy="304" r="2.6" fill="#8b5cf6"/><text x="34" y="308" font-family="sans-serif" font-size="12.5" font-weight="500" fill="#cbd5e1">eth.addr == 00:80:d3:24:52:c4</text><circle cx="21" cy="325" r="2.6" fill="#8b5cf6"/><text x="34" y="329" font-family="sans-serif" font-size="12.5" font-weight="500" fill="#cbd5e1">MAC address Filter</text><circle cx="21" cy="346" r="2.6" fill="#8b5cf6"/><text x="34" y="350" font-family="sans-serif" font-size="12.5" font-weight="500" fill="#cbd5e1">Filter by destination port</text><circle cx="21" cy="367" r="2.6" fill="#8b5cf6"/><text x="34" y="371" font-family="sans-serif" font-size="12.5" font-weight="500" fill="#cbd5e1">tcp.dstport == 23</text><circle cx="21" cy="388" r="2.6" fill="#8b5cf6"/><text x="34" y="392" font-family="sans-serif" font-size="12.5" font-weight="500" fill="#cbd5e1">tcp.flag.reset == 1</text><circle cx="21" cy="409" r="2.6" fill="#8b5cf6"/><text x="34" y="413" font-family="sans-serif" font-size="12.5" font-weight="500" fill="#cbd5e1">RST flag filter</text><circle cx="21" cy="430" r="2.6" fill="#8b5cf6"/><text x="34" y="434" font-family="sans-serif" font-size="12.5" font-weight="500" fill="#cbd5e1">Filter by ip address and port</text><circle cx="21" cy="451" r="2.6" fill="#8b5cf6"/><text x="34" y="455" font-family="sans-serif" font-size="12.5" font-weight="500" fill="#cbd5e1">ip.addr == 192.168.0.2 and Tcp.port == 25</text><circle cx="21" cy="472" r="2.6" fill="#8b5cf6"/><text x="34" y="476" font-family="sans-serif" font-size="12.5" font-weight="500" fill="#cbd5e1">Uses the same packet capturing options as the previous</text><text x="34" y="493" font-family="sans-serif" font-size="12.5" font-weight="500" fill="#cbd5e1">session, or uses</text><circle cx="21" cy="510" r="2.6" fill="#8b5cf6"/><text x="34" y="514" font-family="sans-serif" font-size="12.5" font-weight="500" fill="#cbd5e1">Capture → Start</text><circle cx="21" cy="531" r="2.6" fill="#8b5cf6"/><text x="34" y="535" font-family="sans-serif" font-size="12.5" font-weight="500" fill="#cbd5e1">Start</text><circle cx="21" cy="552" r="2.6" fill="#8b5cf6"/><text x="34" y="556" font-family="sans-serif" font-size="12.5" font-weight="500" fill="#cbd5e1">Go → Go forward</text><circle cx="21" cy="573" r="2.6" fill="#8b5cf6"/><text x="34" y="577" font-family="sans-serif" font-size="12.5" font-weight="500" fill="#cbd5e1">Jump forward in the packet history</text><circle cx="21" cy="594" r="2.6" fill="#8b5cf6"/><text x="34" y="598" font-family="sans-serif" font-size="12.5" font-weight="500" fill="#cbd5e1">Go Forward</text><circle cx="21" cy="615" r="2.6" fill="#8b5cf6"/><text x="34" y="619" font-family="sans-serif" font-size="12.5" font-weight="500" fill="#cbd5e1">defaults if no options were set</text><circle cx="21" cy="636" r="2.6" fill="#8b5cf6"/><text x="34" y="640" font-family="sans-serif" font-size="12.5" font-weight="500" fill="#cbd5e1">Go to specific packet</text><circle cx="21" cy="657" r="2.6" fill="#8b5cf6"/><text x="34" y="661" font-family="sans-serif" font-size="12.5" font-weight="500" fill="#cbd5e1">Go to Packet...</text><circle cx="21" cy="678" r="2.6" fill="#8b5cf6"/><text x="34" y="682" font-family="sans-serif" font-size="12.5" font-weight="500" fill="#cbd5e1">Go → Go to Packet...</text><circle cx="21" cy="699" r="2.6" fill="#8b5cf6"/><text x="34" y="703" font-family="sans-serif" font-size="12.5" font-weight="500" fill="#cbd5e1">Stop</text><circle cx="21" cy="720" r="2.6" fill="#8b5cf6"/><text x="34" y="724" font-family="sans-serif" font-size="12.5" font-weight="500" fill="#cbd5e1">Stops currently active capture</text><circle cx="21" cy="741" r="2.6" fill="#8b5cf6"/><text x="34" y="745" font-family="sans-serif" font-size="12.5" font-weight="500" fill="#cbd5e1">Capture → Stop</text><circle cx="21" cy="762" r="2.6" fill="#8b5cf6"/><text x="34" y="766" font-family="sans-serif" font-size="12.5" font-weight="500" fill="#cbd5e1">Go → Go to First Packet</text><circle cx="21" cy="783" r="2.6" fill="#8b5cf6"/><text x="34" y="787" font-family="sans-serif" font-size="12.5" font-weight="500" fill="#cbd5e1">Jump to first packet of the capture file</text><circle cx="21" cy="804" r="2.6" fill="#8b5cf6"/><text x="34" y="808" font-family="sans-serif" font-size="12.5" font-weight="500" fill="#cbd5e1">Go to First Packet</text><circle cx="21" cy="825" r="2.6" fill="#8b5cf6"/><text x="34" y="829" font-family="sans-serif" font-size="12.5" font-weight="500" fill="#cbd5e1">Capture → Restart</text><circle cx="21" cy="846" r="2.6" fill="#8b5cf6"/><text x="34" y="850" font-family="sans-serif" font-size="12.5" font-weight="500" fill="#cbd5e1">Restart</text><circle cx="21" cy="867" r="2.6" fill="#8b5cf6"/><text x="34" y="871" font-family="sans-serif" font-size="12.5" font-weight="500" fill="#cbd5e1">Restart active capture session</text><circle cx="21" cy="888" r="2.6" fill="#8b5cf6"/><text x="34" y="892" font-family="sans-serif" font-size="12.5" font-weight="500" fill="#cbd5e1">Jump to last packet of the capture file</text><circle cx="21" cy="909" r="2.6" fill="#8b5cf6"/><text x="34" y="913" font-family="sans-serif" font-size="12.5" font-weight="500" fill="#cbd5e1">Go to Last Packet</text><circle cx="21" cy="930" r="2.6" fill="#8b5cf6"/><text x="34" y="934" font-family="sans-serif" font-size="12.5" font-weight="500" fill="#cbd5e1">Go → Go to Last Packet</text><circle cx="21" cy="951" r="2.6" fill="#8b5cf6"/><text x="34" y="955" font-family="sans-serif" font-size="12.5" font-weight="500" fill="#cbd5e1">Options...</text><circle cx="21" cy="972" r="2.6" fill="#8b5cf6"/><text x="34" y="976" font-family="sans-serif" font-size="12.5" font-weight="500" fill="#cbd5e1">Opens &quot;Capture Options&quot; dialog box</text><circle cx="21" cy="993" r="2.6" fill="#8b5cf6"/><text x="34" y="997" font-family="sans-serif" font-size="12.5" font-weight="500" fill="#cbd5e1">Capture → Options...</text><circle cx="21" cy="1014" r="2.6" fill="#8b5cf6"/><text x="34" y="1018" font-family="sans-serif" font-size="12.5" font-weight="500" fill="#cbd5e1">View → Auto Scroll in Live Capture</text><circle cx="21" cy="1035" r="2.6" fill="#8b5cf6"/><text x="34" y="1039" font-family="sans-serif" font-size="12.5" font-weight="500" fill="#cbd5e1">Auto scroll packet list during live capure</text><circle cx="21" cy="1056" r="2.6" fill="#8b5cf6"/><text x="34" y="1060" font-family="sans-serif" font-size="12.5" font-weight="500" fill="#cbd5e1">Auto Scroll in Live Capture</text><circle cx="21" cy="1077" r="2.6" fill="#8b5cf6"/><text x="34" y="1081" font-family="sans-serif" font-size="12.5" font-weight="500" fill="#cbd5e1">File → Open...</text><circle cx="21" cy="1098" r="2.6" fill="#8b5cf6"/><text x="34" y="1102" font-family="sans-serif" font-size="12.5" font-weight="500" fill="#cbd5e1">Open...</text><circle cx="21" cy="1119" r="2.6" fill="#8b5cf6"/><text x="34" y="1123" font-family="sans-serif" font-size="12.5" font-weight="500" fill="#cbd5e1">Opens &quot;File Open&quot; dialog box to load a capture for viewing</text>
    </g>
    </g><g transform="translate(996, 827)">
    <g class="cat-card">
      <rect x="0" y="0" width="480" height="704" rx="10"
            fill="none" stroke="#ec4899" stroke-width="1.6" stroke-dasharray="4,3"/>
      <rect x="14" y="-16" width="189.0" height="32" rx="7" fill="#ec4899"/>
      <text x="108.5" y="5" text-anchor="middle"
            font-family="'Fira Code', monospace" font-size="12.5" font-weight="800" fill="#04060d">Main Toolbar Items</text>
      <circle cx="21" cy="52" r="2.6" fill="#ec4899"/><text x="34" y="56" font-family="sans-serif" font-size="12.5" font-weight="500" fill="#cbd5e1">Colorize the packet list (or not)</text><circle cx="21" cy="73" r="2.6" fill="#ec4899"/><text x="34" y="77" font-family="sans-serif" font-size="12.5" font-weight="500" fill="#cbd5e1">Colorize</text><circle cx="21" cy="94" r="2.6" fill="#ec4899"/><text x="34" y="98" font-family="sans-serif" font-size="12.5" font-weight="500" fill="#cbd5e1">View → Colorize</text><circle cx="21" cy="115" r="2.6" fill="#ec4899"/><text x="34" y="119" font-family="sans-serif" font-size="12.5" font-weight="500" fill="#cbd5e1">Save as...</text><circle cx="21" cy="136" r="2.6" fill="#ec4899"/><text x="34" y="140" font-family="sans-serif" font-size="12.5" font-weight="500" fill="#cbd5e1">Save current capture file</text><circle cx="21" cy="157" r="2.6" fill="#ec4899"/><text x="34" y="161" font-family="sans-serif" font-size="12.5" font-weight="500" fill="#cbd5e1">File → Save as...</text><circle cx="21" cy="178" r="2.6" fill="#ec4899"/><text x="34" y="182" font-family="sans-serif" font-size="12.5" font-weight="500" fill="#cbd5e1">View → Zoom In</text><circle cx="21" cy="199" r="2.6" fill="#ec4899"/><text x="34" y="203" font-family="sans-serif" font-size="12.5" font-weight="500" fill="#cbd5e1">Zoom into the packet data (increase the font size)</text><circle cx="21" cy="220" r="2.6" fill="#ec4899"/><text x="34" y="224" font-family="sans-serif" font-size="12.5" font-weight="500" fill="#cbd5e1">Zoom In</text><circle cx="21" cy="241" r="2.6" fill="#ec4899"/><text x="34" y="245" font-family="sans-serif" font-size="12.5" font-weight="500" fill="#cbd5e1">File → Close</text><circle cx="21" cy="262" r="2.6" fill="#ec4899"/><text x="34" y="266" font-family="sans-serif" font-size="12.5" font-weight="500" fill="#cbd5e1">Close</text><circle cx="21" cy="283" r="2.6" fill="#ec4899"/><text x="34" y="287" font-family="sans-serif" font-size="12.5" font-weight="500" fill="#cbd5e1">Close current capture file</text><circle cx="21" cy="304" r="2.6" fill="#ec4899"/><text x="34" y="308" font-family="sans-serif" font-size="12.5" font-weight="500" fill="#cbd5e1">Zoom out of the packet data (decrease the font size)</text><circle cx="21" cy="325" r="2.6" fill="#ec4899"/><text x="34" y="329" font-family="sans-serif" font-size="12.5" font-weight="500" fill="#cbd5e1">Zoom Out</text><circle cx="21" cy="346" r="2.6" fill="#ec4899"/><text x="34" y="350" font-family="sans-serif" font-size="12.5" font-weight="500" fill="#cbd5e1">View → Zoom Out</text><circle cx="21" cy="367" r="2.6" fill="#ec4899"/><text x="34" y="371" font-family="sans-serif" font-size="12.5" font-weight="500" fill="#cbd5e1">Reload</text><circle cx="21" cy="388" r="2.6" fill="#ec4899"/><text x="34" y="392" font-family="sans-serif" font-size="12.5" font-weight="500" fill="#cbd5e1">Reload current capture file</text><circle cx="21" cy="409" r="2.6" fill="#ec4899"/><text x="34" y="413" font-family="sans-serif" font-size="12.5" font-weight="500" fill="#cbd5e1">File → Reload</text><circle cx="21" cy="430" r="2.6" fill="#ec4899"/><text x="34" y="434" font-family="sans-serif" font-size="12.5" font-weight="500" fill="#cbd5e1">View → Normal Size</text><circle cx="21" cy="451" r="2.6" fill="#ec4899"/><text x="34" y="455" font-family="sans-serif" font-size="12.5" font-weight="500" fill="#cbd5e1">Set zoom level back to 100%</text><circle cx="21" cy="472" r="2.6" fill="#ec4899"/><text x="34" y="476" font-family="sans-serif" font-size="12.5" font-weight="500" fill="#cbd5e1">Normal Size</text><circle cx="21" cy="493" r="2.6" fill="#ec4899"/><text x="34" y="497" font-family="sans-serif" font-size="12.5" font-weight="500" fill="#cbd5e1">Edit → Find Packet...</text><circle cx="21" cy="514" r="2.6" fill="#ec4899"/><text x="34" y="518" font-family="sans-serif" font-size="12.5" font-weight="500" fill="#cbd5e1">Find Packet...</text><circle cx="21" cy="535" r="2.6" fill="#ec4899"/><text x="34" y="539" font-family="sans-serif" font-size="12.5" font-weight="500" fill="#cbd5e1">Find packet based on different criteria</text><circle cx="21" cy="556" r="2.6" fill="#ec4899"/><text x="34" y="560" font-family="sans-serif" font-size="12.5" font-weight="500" fill="#cbd5e1">Resize columns, so the content fits the width</text><circle cx="21" cy="577" r="2.6" fill="#ec4899"/><text x="34" y="581" font-family="sans-serif" font-size="12.5" font-weight="500" fill="#cbd5e1">Resize Columns</text><circle cx="21" cy="598" r="2.6" fill="#ec4899"/><text x="34" y="602" font-family="sans-serif" font-size="12.5" font-weight="500" fill="#cbd5e1">View → Resize Columns</text><circle cx="21" cy="619" r="2.6" fill="#ec4899"/><text x="34" y="623" font-family="sans-serif" font-size="12.5" font-weight="500" fill="#cbd5e1">Go Back</text><circle cx="21" cy="640" r="2.6" fill="#ec4899"/><text x="34" y="644" font-family="sans-serif" font-size="12.5" font-weight="500" fill="#cbd5e1">Jump back in the packet history</text><circle cx="21" cy="661" r="2.6" fill="#ec4899"/><text x="34" y="665" font-family="sans-serif" font-size="12.5" font-weight="500" fill="#cbd5e1">Go → Go back</text>
    </g>
    </g>
  </g>

  <g transform="translate(1077.0, 1990)">
    <rect x="-440" y="-38" width="880" height="76" rx="14" fill="#0b0e1a" stroke="url(#brand-grad)" stroke-width="2"/>
    <text x="0" y="-12" text-anchor="middle" font-size="16" font-weight="800" fill="#ffffff" letter-spacing="3px">
      <tspan fill="#ff0055">RED</tspan><tspan fill="#ffffff">TEAM</tspan><tspan fill="#00f0ff">APT</tspan>
      <tspan fill="#94a3b8" font-size="11"> • </tspan>
      <tspan fill="#a1a1aa" font-size="10.5">OFFICIAL OFFENSIVE SECURITY &amp; ADVERSARY SIMULATION ROADMAP</tspan>
    </text>
    <g transform="translate(-315, 6)">
      <rect width="190" height="26" rx="6" fill="#18181b" stroke="#ff0055" stroke-width="1.2"/>
      <text x="95" y="13" text-anchor="middle" dominant-baseline="middle" font-family="'Fira Code', monospace" font-size="10.5" font-weight="600" fill="#f43f5e">RedTeamAPT.ir</text>

      <rect x="220" width="190" height="26" rx="6" fill="#18181b" stroke="#00f0ff" stroke-width="1.2"/>
      <text x="315" y="13" text-anchor="middle" dominant-baseline="middle" font-family="'Fira Code', monospace" font-size="10.5" font-weight="600" fill="#38bdf8">TELEGRAM : @RedTeamAcademy</text>

      <rect x="440" width="190" height="26" rx="6" fill="#18181b" stroke="#a855f7" stroke-width="1.2"/>
      <text x="535" y="13" text-anchor="middle" dominant-baseline="middle" font-family="'Fira Code', monospace" font-size="10.5" font-weight="600" fill="#c084fc">GITHUB : RedTeamAPT</text>
    </g>
  </g>
</svg>